<svg xmlns="http://www.w3.org/2000/svg" xml:space="preserve" style="fill-rule:evenodd;clip-rule:evenodd;stroke-linejoin:round;stroke-miterlimit:2" viewBox="0 0 16 16"><path d="M70.65 18.1 38.5.62a4.22 4.22 0 0 0-4.05 0L2.31 18.1a4.229 4.229 0 0 0-2.22 3.72v39.12c0 1.55.85 2.98 2.22 3.72l32.14 17.48c1.26.69 2.79.69 4.05 0l32.15-17.48a4.24 4.24 0 0 0 2.21-3.72V21.82c0-1.55-.85-2.98-2.21-3.72ZM36.48 71.81c-16.81 0-30.43-13.62-30.43-30.43 0-16.81 13.62-30.42 30.43-30.42 16.81 0 30.42 13.62 30.42 30.42 0 16.8-13.62 30.43-30.42 30.43Z" style="fill:#f0981b;fill-rule:nonzero" transform="matrix(.19239 0 0 .19239 .983 .054)"/><path d="M39.78 19.68c-7.07-1.04-13.67 1.33-18.33 5.72-.53.5-1.03 1.02-1.51 1.57a22.09 22.09 0 0 0-3.45 5.34c-.29.65-.56 1.32-.78 2-.24.69-.45 1.4-.6 2.12-.39 1.59-.58 3.24-.58 4.95 0 12.1 9.85 21.95 21.94 21.95 4.39 0 8.48-1.29 11.91-3.51 1.3-.85 1.22-2.79-.11-3.58h-.01c-.68-.41-1.54-.41-2.21.02-3.07 1.99-6.8 3.06-10.79 2.79-10.16-.68-17.73-10.1-16.32-20.19.01-.04.02-.08.02-.12.12-.75.28-1.49.49-2.2.19-.7.44-1.37.71-2.04.55-1.32 1.26-2.55 2.11-3.67.43-.58.89-1.12 1.39-1.64.51-.54 1.05-1.05 1.62-1.51 3.05-2.51 6.95-4 11.19-4 9.78 0 17.71 7.94 17.71 17.7 0 .7-.04 1.4-.12 2.08-.1.82.31 1.61 1.02 2.03.35.21.72.3 1.08.3 1.03 0 1.99-.74 2.12-1.86.07-.6.11-1.21.13-1.82.36-11.02-7.72-20.82-18.63-22.43Z" style="fill:#fff;fill-rule:nonzero" transform="matrix(.19239 0 0 .19239 .983 .054)"/><path d="M55.3 53.03a2.128 2.128 0 0 1-2.91.73l-9.99-5.97a2.12 2.12 0 0 1-.74-2.91 2.123 2.123 0 0 1 2.91-.73l10 5.97c1 .6 1.33 1.9.73 2.91Z" style="fill:#fff;fill-rule:nonzero" transform="matrix(.19239 0 0 .19239 .983 .054)"/></svg>