<svg width="544" height="306" viewBox="0 0 544 306" fill="none" xmlns="http://www.w3.org/2000/svg">
<rect width="544" height="306" fill="#F5F5F5"/>
<path d="M198.918 159.787V159.575H203.219V159.787C203.219 163.058 205.092 165.564 210.8 165.564H211.226C215.613 165.564 217.998 163.695 217.998 160.891V160.679C217.998 158.046 216.465 156.899 213.782 156.261L206.968 154.604C202.836 153.585 200.027 151.332 200.027 146.873V146.448C200.027 141.521 203.945 138.25 210.674 138.25H211.1C217.7 138.25 221.492 141.818 221.492 146.702V146.914H217.276V146.702C217.276 144.195 215.274 141.776 211.102 141.776H210.676C206.417 141.776 204.161 143.73 204.161 146.491V146.702C204.161 148.953 205.482 150.271 208.419 150.993L215.276 152.65C219.449 153.669 222.134 155.793 222.134 160.338V160.763C222.134 165.86 218.173 169.089 211.189 169.089H210.763C202.118 169.089 198.924 165.267 198.924 159.787H198.918Z" fill="black"/>
<path d="M225.446 138.589H229.45V143.008H225.446V138.589ZM225.446 147.085H229.45V168.75H225.446V147.085Z" fill="black"/>
<path d="M233.278 147.087H237.11V150.57C239.027 147.723 240.688 146.832 243.754 146.832H244.18C248.652 146.832 251.206 149.169 251.206 154.649V168.752H247.203V155.2C247.203 151.462 245.798 149.974 243.071 149.974H242.645C239.239 149.974 237.28 152.564 237.28 156.304V168.75H233.276V147.085L233.278 147.087Z" fill="black"/>
<path d="M254.439 170.366H258.443V170.578C258.443 172.574 260.316 173.467 263.851 173.467H264.022C267.259 173.467 269.304 172.489 269.304 169.559V164.632C267.643 167.139 266.11 168.073 263.044 168.073H262.618C257.253 168.073 254.015 163.951 254.015 157.666V157.241C254.015 150.954 257.253 146.835 262.575 146.835H263.001C266.195 146.835 267.771 147.727 269.432 150.531V147.091H273.265V169.563C273.265 174.49 269.73 176.444 263.853 176.444H263.682C256.612 176.444 254.439 173.811 254.439 170.582V170.366ZM263.682 164.97H264.108C267.728 164.97 269.559 162.591 269.559 157.664V157.239C269.559 152.312 267.728 149.933 264.108 149.933H263.682C260.19 149.933 258.231 152.355 258.231 157.239V157.664C258.231 162.548 260.19 164.97 263.682 164.97Z" fill="black"/>
<path d="M277.093 138.589H281.097V168.75H277.093V138.589Z" fill="black"/>
<path d="M284.413 158.13V157.705C284.413 150.738 287.862 146.83 294.079 146.83H294.506C300.382 146.83 303.577 150.228 303.577 157.322C303.577 158.002 303.534 158.512 303.491 158.851H288.5C288.629 163.652 290.588 166.031 294.079 166.031H294.506C298.295 166.031 299.104 163.609 299.104 162.377V162.166H303.151V162.377C303.151 165.053 301.32 169.004 294.634 169.004H294.208C287.777 169.004 284.413 165.096 284.413 158.13ZM299.49 155.879V155.793C299.49 151.546 297.616 149.76 294.465 149.76H294.039C291.016 149.76 288.843 151.714 288.545 155.877H299.49V155.879Z" fill="black"/>
<path d="M306.386 159.787V159.575H310.687V159.787C310.687 163.058 312.56 165.564 318.268 165.564H318.694C323.081 165.564 325.466 163.695 325.466 160.891V160.679C325.466 158.046 323.933 156.899 321.25 156.261L314.436 154.604C310.304 153.585 307.495 151.332 307.495 146.873V146.448C307.495 141.521 311.413 138.25 318.142 138.25H318.568C325.168 138.25 328.96 141.818 328.96 146.702V146.914H324.744V146.702C324.744 144.195 322.742 141.776 318.57 141.776H318.144C313.885 141.776 311.627 143.73 311.627 146.491V146.702C311.627 148.953 312.948 150.271 315.885 150.993L322.742 152.65C326.915 153.669 329.6 155.793 329.6 160.338V160.763C329.6 165.86 325.639 169.089 318.655 169.089H318.229C309.584 169.089 306.39 165.267 306.39 159.787H306.386Z" fill="black"/>
<path d="M335.556 164.374V150.356H331.638V147.085H334.747C335.385 147.085 335.727 146.702 335.727 146.064V141.434H339.56V147.085H344.968V150.356H339.56V163.652C339.56 165.053 340.114 165.478 341.39 165.478H344.968V168.75H339.986C336.834 168.75 335.556 167.306 335.556 164.374Z" fill="black"/>
<path d="M347.008 158.13V157.705C347.008 150.738 350.329 146.83 356.803 146.83H357.229C363.703 146.83 367.024 150.738 367.024 157.705V158.13C367.024 165.096 363.701 169.004 357.229 169.004H356.803C350.329 169.004 347.008 165.096 347.008 158.13ZM356.803 165.903H357.229C360.807 165.903 362.809 163.567 362.809 158.13V157.705C362.809 152.268 360.807 149.931 357.229 149.931H356.803C353.226 149.931 351.224 152.268 351.224 157.705V158.13C351.224 163.567 353.226 165.903 356.803 165.903Z" fill="black"/>
<path d="M370.343 147.087H374.175V151.08C375.922 148.065 376.731 147.087 379.371 147.087H382.097V150.781H378.605C376.05 150.781 374.346 152.906 374.346 156.133V168.75H370.343V147.085V147.087Z" fill="black"/>
<path d="M383.069 158.13V157.705C383.069 150.738 386.518 146.83 392.735 146.83H393.161C399.038 146.83 402.232 150.228 402.232 157.322C402.232 158.002 402.19 158.512 402.147 158.851H387.156C387.284 163.652 389.243 166.031 392.735 166.031H393.161C396.951 166.031 397.76 163.609 397.76 162.377V162.166H401.806V162.377C401.806 165.053 399.976 169.004 393.29 169.004H392.864C386.432 169.004 383.069 165.096 383.069 158.13ZM398.145 155.879V155.793C398.145 151.546 396.272 149.76 393.12 149.76H392.694C389.671 149.76 387.498 151.714 387.201 155.877H398.145V155.879Z" fill="black"/>
<path d="M175.495 150.96C175.369 151.4 175.228 151.835 175.075 152.262C174.914 152.711 174.741 153.152 174.552 153.587L168.21 153.455C168.21 153.583 168.21 153.709 168.206 153.838L185.443 154.197C185.465 153.183 185.439 152.17 185.359 151.166L175.493 150.96H175.495Z" fill="black"/>
<path d="M162.188 123.773L162.015 124.202C162.971 124.56 163.896 124.985 164.787 125.466L158.653 140.633C159.027 140.747 159.4 140.879 159.769 141.028C159.787 141.036 159.805 141.042 159.822 141.05L166.269 125.104C166.251 125.096 166.233 125.09 166.216 125.082C164.887 124.547 163.542 124.112 162.188 123.773Z" fill="black"/>
<path d="M168.355 127.878C169.123 128.514 169.849 129.202 170.525 129.936L161.774 142.034C162.08 142.221 162.378 142.418 162.663 142.626L172.751 128.681C171.669 127.9 170.525 127.183 169.325 126.538L168.355 127.88V127.878Z" fill="black"/>
<path d="M172.986 133.152C173.508 133.982 173.975 134.848 174.384 135.747L164.441 144.171C164.649 144.387 164.848 144.608 165.042 144.838L178.182 133.706C177.369 132.746 176.494 131.833 175.561 130.973L172.988 133.152H172.986Z" fill="black"/>
<path d="M180.492 136.812L175.626 139.232C175.87 140.161 176.056 141.115 176.178 142.089L166.479 146.912C166.597 147.123 166.712 147.337 166.818 147.552L182.243 139.883C181.719 138.827 181.134 137.803 180.49 136.812H180.492Z" fill="black"/>
<path d="M176.347 145.359C176.327 146.322 176.243 147.274 176.101 148.205L167.763 150.072C167.81 150.251 167.855 150.43 167.894 150.611L184.713 146.845C184.473 145.775 184.177 144.72 183.824 143.683L176.347 145.357V145.359Z" fill="black"/>
<path d="M184.988 158.793L173.493 155.71C173.061 156.469 172.586 157.203 172.071 157.902L167.806 156.759C167.782 156.855 167.757 156.949 167.731 157.044L184.377 161.507C184.624 160.604 184.825 159.7 184.986 158.791L184.988 158.793Z" fill="black"/>
<path d="M170.772 159.506C170.246 160.098 169.688 160.661 169.101 161.192L166.622 159.828C166.583 159.901 166.542 159.974 166.502 160.047L181.594 168.353C182 167.619 182.379 166.865 182.73 166.088L170.77 159.506H170.772Z" fill="black"/>
<path d="M167.661 162.392C167.095 162.825 166.506 163.229 165.898 163.608L164.726 162.528C164.683 162.577 164.638 162.624 164.594 162.672L177.257 174.342C177.774 173.787 178.272 173.209 178.749 172.611L167.661 162.394V162.392Z" fill="black"/>
<path d="M173.265 177.939L164.361 164.478C164.009 164.659 163.652 164.83 163.289 164.992C163.289 164.992 162.635 165.273 162.486 165.334L171.6 179.11C172.168 178.738 172.723 178.347 173.267 177.939H173.265Z" fill="black"/>
<path d="M160.973 165.875C160.822 165.922 159.866 166.198 159.583 166.267C159.583 166.267 159.316 166.332 159.243 166.349L164.96 182.39C165.523 182.19 166.08 181.977 166.63 181.745L160.973 165.873V165.875Z" fill="black"/>
<path d="M157.536 166.654C157.035 166.761 156.527 166.839 156.014 166.889L157.734 184C158.246 183.949 158.755 183.886 159.261 183.811L157.536 166.656V166.654Z" fill="black"/>
<path d="M154.049 166.934C153.62 166.912 153.192 166.871 152.764 166.808L150.328 183.833C150.754 183.894 151.182 183.947 151.609 183.992L154.049 166.936V166.934Z" fill="black"/>
<path d="M133.955 156.04C134.082 155.6 134.222 155.165 134.375 154.738C134.536 154.289 134.71 153.848 134.899 153.413L141.241 153.545C141.241 153.417 141.241 153.291 141.245 153.162L124.008 152.803C123.985 153.817 124.012 154.83 124.091 155.834L133.957 156.04H133.955Z" fill="black"/>
<path d="M147.265 183.227L147.438 182.798C146.482 182.44 145.556 182.015 144.665 181.534L150.799 166.367C150.426 166.253 150.053 166.121 149.684 165.972C149.666 165.964 149.647 165.958 149.631 165.95L143.184 181.895C143.202 181.904 143.22 181.91 143.237 181.918C144.566 182.453 145.911 182.888 147.265 183.227Z" fill="black"/>
<path d="M141.096 179.122C140.328 178.486 139.602 177.798 138.925 177.064L147.676 164.966C147.371 164.779 147.073 164.582 146.788 164.374L136.699 178.319C137.782 179.1 138.925 179.817 140.126 180.462L141.096 179.12V179.122Z" fill="black"/>
<path d="M136.465 173.848C135.943 173.018 135.476 172.152 135.066 171.253L145.01 162.829C144.802 162.613 144.602 162.392 144.409 162.162L131.269 173.294C132.082 174.254 132.957 175.167 133.89 176.027L136.463 173.848H136.465Z" fill="black"/>
<path d="M128.961 170.188L133.827 167.768C133.582 166.839 133.397 165.885 133.275 164.911L142.974 160.088C142.855 159.877 142.741 159.663 142.635 159.447L127.208 167.117C127.732 168.173 128.317 169.197 128.961 170.188Z" fill="black"/>
<path d="M133.103 161.641C133.124 160.678 133.207 159.726 133.35 158.795L141.687 156.928C141.64 156.749 141.596 156.57 141.557 156.389L124.737 160.153C124.978 161.223 125.274 162.278 125.626 163.315L133.105 161.641H133.103Z" fill="black"/>
<path d="M124.462 148.207L135.957 151.29C136.389 150.531 136.864 149.797 137.38 149.098L141.644 150.241C141.669 150.145 141.693 150.051 141.72 149.956L125.072 145.491C124.825 146.393 124.623 147.298 124.462 148.207Z" fill="black"/>
<path d="M138.679 147.494C139.204 146.902 139.763 146.339 140.35 145.808L142.829 147.172C142.868 147.099 142.908 147.026 142.949 146.953L127.856 138.644C127.451 139.378 127.071 140.133 126.721 140.91L138.681 147.491L138.679 147.494Z" fill="black"/>
<path d="M141.791 144.608C142.358 144.175 142.947 143.77 143.555 143.392L144.727 144.472C144.769 144.423 144.814 144.376 144.859 144.328L132.196 132.658C131.678 133.213 131.181 133.791 130.704 134.389L141.791 144.606V144.608Z" fill="black"/>
<path d="M136.188 129.061L145.092 142.522C145.444 142.341 145.801 142.17 146.164 142.008C146.164 142.008 146.818 141.727 146.967 141.666L137.855 127.89C137.286 128.262 136.732 128.653 136.188 129.061Z" fill="black"/>
<path d="M148.477 141.125C148.628 141.078 149.584 140.802 149.868 140.733C149.868 140.733 150.135 140.668 150.208 140.651L144.49 124.61C143.928 124.81 143.371 125.023 142.821 125.255L148.477 141.127V141.125Z" fill="black"/>
<path d="M151.914 140.346C152.416 140.239 152.923 140.161 153.437 140.11L151.719 123C151.207 123.051 150.697 123.114 150.192 123.189L151.916 140.344L151.914 140.346Z" fill="black"/>
<path d="M155.404 140.066C155.832 140.088 156.26 140.129 156.688 140.192L159.122 123.167C158.696 123.106 158.268 123.053 157.842 123.008L155.402 140.064L155.404 140.066Z" fill="black"/>
<path d="M410.245 168.763V163.157H408.314V162.403H413.124V163.157H411.193V168.763H410.245Z" fill="black"/>
<path d="M413.87 168.763V162.403H415.181L416.949 167.509L418.643 162.403H420V168.763H419.044V163.73L417.349 168.763H416.502L414.826 163.73V168.763H413.87Z" fill="black"/>
</svg>
