<?xml version="1.0" encoding="UTF-8"?>
<svg xmlns="http://www.w3.org/2000/svg" xmlns:xlink="http://www.w3.org/1999/xlink" width="400px" height="400px" viewBox="0 0 400 400" version="1.1" style="background: #12131C;">
  <title>Logos / Icon</title>
  <g id="Logos-/-Icon" stroke="none" stroke-width="1" fill="none" fill-rule="evenodd">
    <rect fill="#12131C" x="0" y="0" width="400" height="400"></rect>
    <path d="M168.048276,161.5 L168.048276,123 L125.965517,123 L125.965517,161.5 L101.183448,161.5 L87,200 L125.965517,200 L125.965517,277 L170.152414,277 C178.335172,277 185.66069,271.9334 188.466207,264.3412 L196.976276,241.2258 C196.976276,241.2258 197.973793,238.5154 200.904,238.5154 L262.656552,238.5154 L276.84,200.0154 L225.795172,200.0154 C217.612414,200.0154 210.286897,205.082 207.481379,212.6742 L198.97131,235.7896 C198.97131,235.7896 197.973793,238.5 195.043586,238.5 L168.03269,238.5 L168.03269,200 L198.503724,200 C206.686483,200 214.012,194.9334 216.817517,187.3412 L225.327586,164.2258 C225.327586,164.2258 226.325103,161.5154 229.25531,161.5154 L298.800966,161.5154 L313,123 L254.162069,123 C245.97931,123 238.653793,128.0666 235.848276,135.6588 L227.338207,158.7742 C227.338207,158.7742 226.34069,161.4846 223.410483,161.4846 L168.03269,161.4846 L168.048276,161.5 Z" id="Path" fill="#FFFFFF" fill-rule="nonzero"></path>
  </g>
</svg>
