<?xml version="1.0" encoding="UTF-8"?>
<!-- Created with Inkscape (http://www.inkscape.org/) -->
<svg width="1200" height="562" version="1.1" viewBox="0 0 1200 562" xmlns="http://www.w3.org/2000/svg" xmlns:xlink="http://www.w3.org/1999/xlink">
 <title>Batik logo</title>
 <defs>
  <linearGradient id="linearGradient1874" x1="158.89" x2="158.89" y1="7.0247" y2="17.876" gradientTransform="scale(.51163 1.9545)" gradientUnits="userSpaceOnUse">
   <stop stop-color="#c7aef9" offset=".106"/>
   <stop stop-color="#af8bf9" offset=".341"/>
   <stop stop-color="#ac87f7" offset=".396"/>
   <stop stop-color="#a37cf3" offset=".446"/>
   <stop stop-color="#956aea" offset=".495"/>
   <stop stop-color="#8252e0" offset=".539"/>
  </linearGradient>
  <linearGradient id="linearGradient1876" x1="113.65" x2="113.65" y1="7.0739" y2="29.827" gradientTransform="scale(.85362 1.1715)" gradientUnits="userSpaceOnUse">
   <stop stop-color="#c7aef9" offset=".106"/>
   <stop stop-color="#af8bf9" offset=".311"/>
   <stop stop-color="#ac87f7" offset=".358"/>
   <stop stop-color="#a37cf3" offset=".402"/>
   <stop stop-color="#956aea" offset=".444"/>
   <stop stop-color="#8252e0" offset=".482"/>
  </linearGradient>
  <linearGradient id="linearGradient1878" x1="94.659" x2="94.659" y1="6.7361" y2="25.565" gradientTransform="scale(.72549 1.3784)" gradientUnits="userSpaceOnUse">
   <stop stop-color="#c7aef9" offset=".106"/>
   <stop stop-color="#af8bf9" offset=".378"/>
   <stop stop-color="#ac87f7" offset=".422"/>
   <stop stop-color="#a37cf3" offset=".464"/>
   <stop stop-color="#956aea" offset=".503"/>
   <stop stop-color="#8252e0" offset=".539"/>
  </linearGradient>
  <linearGradient id="linearGradient1880" x1="30.159" x2="30.159" y1="7.8386" y2="29.479" gradientTransform="scale(.8434 1.1857)" gradientUnits="userSpaceOnUse">
   <stop stop-color="#c7aef9" offset=".106"/>
   <stop stop-color="#af8bf9" offset=".338"/>
   <stop stop-color="#ad88f8" offset=".432"/>
   <stop stop-color="#a680f4" offset=".491"/>
   <stop stop-color="#9b71ee" offset=".541"/>
   <stop stop-color="#8b5de5" offset=".584"/>
   <stop stop-color="#8252e0" offset=".602"/>
  </linearGradient>
  <linearGradient id="linearGradient1882" x1="51.585" x2="51.585" y1="11.806" y2="32.725" gradientTransform="scale(.92888 1.0766)" gradientUnits="userSpaceOnUse">
   <stop stop-color="#c7aef9" offset=".106"/>
   <stop stop-color="#af8bf9" offset=".338"/>
   <stop stop-color="#ae89f8" offset=".419"/>
   <stop stop-color="#a882f5" offset=".448"/>
   <stop stop-color="#9f77f0" offset=".468"/>
   <stop stop-color="#9266e9" offset=".485"/>
   <stop stop-color="#8252e0" offset=".498"/>
  </linearGradient>
 </defs>
 <g>
  <g transform="matrix(10.957 0 0 10.957 12.066 13.163)" style="fill-rule:evenodd;fill:#fff;stroke-linecap:round;stroke-linejoin:round;stroke:#000">
   <g style="fill-rule:nonzero;stroke-linecap:round;stroke-linejoin:round;stroke:none">
    <path d="m19.2 8.732h.067c0 .022-.022.044-.022.067l-.155.49-.2.555-.69 1.688-1.333 2.22-.31.533-.022.044-.2.355-.355.578-.2.333v-3.665a3.2 3.2 0 0 1 .2-1.133v-.022c.133-.333.31-.644.555-.933.355-.422.8-.733 1.31-.933a3.2 3.2 0 0 1 1.133-.2h.222zm.49-2.2c0 .178-.022.355-.044.555l-.09.555-.067.31c-.51-.022-.955 0-1.355.09-1.133.2-1.888.71-2.354 1.333-.6.755-.777 1.688-.844 2.354v16.46c-.533 0-1.066-.178-1.466-.577a.6.6 0 0 1-.155-.178s-.044.044-.133.11c-.51.444-2.288 1.955-3.465 2.288-1.533 1.62-5.042 5.264-7.463 3.576-.067-.045-.133-.11-.2-.156-1.466-1.244-.69-3.487-.11-5.02.444-1.177 1-2.288 1.6-3.398.4-.733 1.888-4.198 2.643-4.42-.155.022-.977.178-1.8.044-.49-.067-.955-.244-1.266-.578-.555-.578-.69-1.644.378-3.62 0 0 5.62-10.75 13.927-11.972 0 0 .31-.09.71-.067.644.11 1.62.49 1.555 2.3zm2.377 15.415-.244.644c0 .022-.022.045-.022.045l-.29.555-.222.378s0 .022-.022.022a3.18 3.18 0 0 1-.333.489c-.644.933-1.577 1.932-2.888 3.02 0 0-.51.355-1.222.644-.11.044-.2.09-.31.133h-.014l-.2.067c-.11.044-.222.067-.355.11-.067.022-.133.022-.2.044v-12.103c.044 0 .09-.022.155-.022h.067a1.04 1.04 0 0 1 .355.044c.067.022.133.044.2.09 0 0 .022 0 .022.022.024.023.056.04.09.044a4.46 4.46 0 0 1 .222.155c.067.067.155.133.244.222 0 0 .067-.09.222-.244.267-.267.733-.69 1.31-.89.2-.067.422-.11.644-.11.666.022 1.4.466 2.044 1.866.067.133.11.29.178.444a1.15 1.15 0 0 0 .133.155 4.31 4.31 0 0 1 .377.689l.067.133c.044.09.067.2.11.31s.067.222.09.355c.022.09.044.178.044.29.09.666.067 1.488-.244 2.4z" style="fill:#000"/>
    <path d="m33.115 31.632c-1.022 1.555-2.5 2.62-4.53 3.265-1.688.555-3.42.622-5.02.244h-.022c-.666-.155-1.31-.4-1.9-.71-.4.467-.933.777-1.51.955-.29.09-.6.133-.91.133h-.222c-.49 0-.933-.11-1.333-.29l.355-.378.067-.067c.178-.156.266-.267.266-.267l.244-.178c3.776-2.754 5.908-3.532 7.13-3.443.777.044 1.155.422 1.377.844.29.6.178 1.3.178 1.3 1.644-1.333 2.732-1.755 3.465-1.755.2 0 .378.022.51.067a1.14 1.14 0 0 1 .489.289 1.31 1.31 0 0 1 .333.466s.022 0 .022-.022l.51-.244a1.98 1.98 0 0 1 .511-.222zm2.688 10.817c-3.665 4.642-7.62 3.176-7.62 3.176-1.022 1.333-2.887 1.955-2.887 1.955-2.266.977-3.3.444-3.754-.022-.222-.244-.29-.466-.29-.466-.11.11-.2.222-.31.31-2.442 2.298-4.442 1.298-4.442 1.298-.29-.09-.533-.244-.71-.4-1.866-1.732 1.6-6.84 1.6-6.84-.555-.045-1.022-.156-1.355-.29a2.41 2.41 0 0 1-.666-.4c-1.288-1.177.466-3.576 1.777-5.02.49.267 1.066.444 1.666.444h.244c1 0 1.932-.422 2.577-1.155 2.243 1.177 4.864 1.355 7.44.533 2.332-.755 3.976-2.02 5.064-3.887l.133-.222c.09 0 .155 0 .244.022 1 .133 1.555.844 1.82 1.444a3.87 3.87 0 0 1 .267.822c.378-.2.69-.267.977-.267 1.066 0 1.533 1.066 1.533 1.066 1.333 2.9-3.31 7.907-3.31 7.907zm-6.353-30.919s-4.065-6.175 6.263-10.95c0 0 3.976-.267 2.02 4.864l-.822 1.977s1.8.577 1.377 1.444c0 0 3.62-2.932 5.197-2.82 0 0 4.354.355 1.133 7.197 0 0 2.377 0 2.643 3.02a8.33 8.33 0 0 1 .022.755s-.11 2.932-3.532 5.864c0 0-6.775 5.908-7.42 1.3 0 0-3.332-.644-1.866-4.02 0 0-2.688 1.355-3.665-.222 0 0-3.287 1.644-3.665-.888 0 .022-1.955-3.398 2.3-7.53z" style="fill:#070707"/>
    <path d="m17.855 8.93-.29.755-.533 1.288-.49.822-.2.333-.355.578-.2.333v-1.11a3.2 3.2 0 0 1 .2-1.133v-.022a3.35 3.35 0 0 1 .555-.933 3.31 3.31 0 0 1 1.311-.911zm.622-2.5-.09.555a3.06 3.06 0 0 1-.133.578l-.133.49c-1.133.2-1.888.71-2.354 1.333-.6.755-.777 1.688-.844 2.354v2.7l-.022.022-.666 1.11c.022-.022.267-.2.666-.155h.022v12.04c-.49.133-1 .222-1.466.155-.11 0-.2-.022-.29-.067-.4-.11-.755-.31-1.066-.666 0 0-2.22 2.02-3.598 2.4-1.333 1.421-4.153 4.351-6.463 3.974a2.7 2.7 0 0 1-1-.4c-1.732-1.2-.91-3.576-.31-5.175.444-1.177 1-2.288 1.6-3.398.31-.555 1.244-2.732 2.02-3.82.222-.333.444-.555.622-.6-.155.022-1.044.178-1.888.022-1.266-.222-2.443-1.133-.822-4.176 0 0 5.62-10.75 13.927-11.972 0 0 1.222-.333 1.9.49.31.466.51 1.11.378 2.2zm2.488 14.75c-.422 1.488-1.555 3.3-4.065 5.397l-.022.022c-.044.022-.178.11-.355.222-.067.044-.133.067-.2.11-.11.067-.222.11-.355.178-.067.022-.133.067-.2.09v-11.339a.96.96 0 0 0 .155.133l.044-.044c.067-.067.178-.2.355-.355l.11-.11c.022-.022.067-.044.09-.067l.022-.022a1.57 1.57 0 0 1 .311-.222c.51-.31 1.155-.555 1.82-.244.2.09.4.222.6.422.355.355.71.91 1.022 1.733 0 0 .355.4.622 1.133.244.69.4 1.7.044 2.954z" style="fill:#66f"/>
    <path d="m33.536 30.943c-.067.11-.11.222-.178.333-.067.133-.155.244-.222.355-1.022 1.555-2.5 2.62-4.53 3.265-1.688.555-3.42.622-5.02.244h-.022a8.22 8.22 0 0 1-1.91-.711c-.4.467-.933.777-1.51.955-.29.09-.6.133-.91.133h-.234c-.49 0-.933-.11-1.333-.29-.378-.178-.733-.422-1.022-.733l.378-.378c.09-.067.11-.11.11-.11.11-.09.222-.155.31-.222 3-2.177 4.953-3.087 6.22-3.332.29-.067.533-.067.755-.067.156 0 .29.022.4.044.29.067.533.178.71.333.067.044.11.11.155.178.51.644.355 1.6.355 1.6l1-.755c2.4-1.62 3.332-.888 3.643-.444a.62.62 0 0 1 .133.267l.378-.178c.444-.2.777-.333 1-.378.222-.067.31-.067.31-.067.133-.022.267-.022.4-.044h.267c.133-.044.244-.022.355 0zm1.088 10.95c-3.665 4.642-7.62 3.176-7.62 3.176-1.022 1.333-2.887 1.955-2.887 1.955-1.133.49-1.955.6-2.554.533-.244-.022-.444-.09-.622-.155-.69-.29-.866-.866-.866-.866-1.844 1.932-3.487 1.9-4.265 1.755-.31-.067-.49-.156-.49-.156-2.888-.955-.044-5.775.71-6.974l.178-.267a4.841 4.841 0 0 1-.844-.133c-3.354-.777-.777-4.13.8-5.82.267.31.6.6.977.8.49.267 1.066.444 1.666.444h.244c1 0 1.932-.422 2.577-1.155 2.243 1.177 4.864 1.355 7.44.533 2.332-.755 3.976-2.02 5.064-3.887l.133-.222.067-.133c.067.044.11.09.178.155.733.69.888 1.732.888 1.732.356-.178.666-.267.933-.267.578-.022.977.267 1.244.555.244.267.355.51.355.51 1.31 2.888-3.3 7.885-3.3 7.885z" style="fill:#3c3"/>
    <path d="m46.086 16.505s-.022.267-.11.69c-.044.178-.09.378-.178.6-.067.178-.11.355-.2.533l-.156.355c-.09.2-.2.4-.31.6l-.178.31c-.044.044-.067.11-.11.155s-.067.11-.11.155c-.51.755-1.222 1.6-2.177 2.42 0 0-1.6 1.4-3.332 2.3l-.69.333-.644.244c-.4.133-.777.2-1.133.178a1.64 1.64 0 0 1-.8-.2 1.39 1.39 0 0 1-.555-.622c-.133-.244-.222-.533-.267-.89v-.044s-.022 0-.09-.022l-.29-.09a1.36 1.36 0 0 1-.267-.111l-.6-.333c-.6-.444-1.155-1.177-.933-2.42.044-.2.09-.422.178-.666.042-.13.094-.256.156-.378-.022 0-.11.044-.244.11-.422.178-1.288.49-2.088.422l-.422-.067c-.355-.11-.69-.31-.91-.666 0 0-.133.067-.355.155-.155.067-.378.133-.6.2-.2.045-.4.11-.622.133h-.044c-.178.022-.333.022-.51.022-.09 0-.155 0-.244-.022-.355-.067-.69-.2-.933-.51-.11-.155-.2-.333-.266-.533-.022-.044-.022-.067-.022-.11-.022-.067-.044-.133-.044-.222 0 0-.067-.11-.133-.29 0-.022-.022-.044-.022-.09-.044-.133-.11-.31-.155-.533-.178-.777-.267-2 .355-3.487.067-.178.155-.355.244-.533.044-.067.067-.133.11-.222l.178-.31c.044-.09.11-.155.155-.244.11-.178.244-.355.378-.533.333-.422.733-.866 1.2-1.333 0 0-4.065-6.175 6.264-10.95 0 0 1.11-.067 1.866.6.69.6 1.088 1.82.178 4.265l-.844 1.977s1.777.578 1.377 1.422c.022-.022.267-.222.644-.49 1.11-.822 3.398-2.4 4.553-2.3 0 0 .71.067 1.333.578.933.777 1.7 2.554-.2 6.62 0 0 .622 0 1.266.4.09.067.178.11.267.2.025.027.055.05.09.067.133.11.267.244.378.422.11.155.222.31.31.51.178.378.31.844.355 1.444-.044.266-.022.51-.044.8z" style="fill:#f00"/>
    <path d="m81.403 12.885h-.222c-1.47-.005-2.66-1.195-2.665-2.665.005-1.47 1.195-2.66 2.665-2.665h.222c1.47.005 2.66 1.195 2.665 2.665-.005 1.47-1.195 2.66-2.665 2.665z" style="fill:#dbcdf9"/>
    <path d="m81.403 13.44h-.222c-1.777 0-3.22-1.444-3.22-3.22s1.443-3.22 3.219-3.22h.222c1.777 0 3.22 1.444 3.22 3.22s-1.444 3.22-3.22 3.22zm-.223-5.34c-1.155 0-2.1.955-2.1 2.1s.955 2.1 2.1 2.1h.222c1.155 0 2.1-.955 2.1-2.1s-.955-2.1-2.1-2.1zm-28.54 13.492-1.11-.067v-.31l1.11-.022c.022.2 0 .355 0 .4z" style="fill:#6038b0"/>
    <path d="m81.403 34.94h-.222c-1.47-.005-2.66-1.195-2.665-2.665v-15.88c.005-1.47 1.195-2.66 2.665-2.665h.222c1.47.005 2.66 1.195 2.665 2.665v15.88c-.005 1.47-1.195 2.66-2.665 2.665z" style="fill:url(#linearGradient1874)"/>
    <path d="m81.403 35.496h-.222c-1.777 0-3.22-1.444-3.22-3.22v-15.88c0-1.777 1.444-3.22 3.22-3.22h.222c1.777 0 3.22 1.444 3.22 3.22v15.88c0 1.777-1.444 3.22-3.22 3.22zm-.222-21.212c-1.155 0-2.1.955-2.1 2.1v15.88c0 1.155.955 2.1 2.1 2.1h.222c1.155 0 2.1-.955 2.1-2.1v-15.88c0-1.155-.955-2.1-2.1-2.1z" style="fill:#6038b0"/>
    <path d="m105.48 34.297-.178.11c-1.244.777-2.888.4-3.687-.844l-5.664-8.95-3.1 2.887v4.776c-.005 1.47-1.195 2.66-2.665 2.666h-.222c-1.47-.005-2.66-1.195-2.665-2.666v-21.324c.005-1.47 1.195-2.66 2.665-2.665h.222c1.47.005 2.66 1.195 2.665 2.665v8.996l.777-.733 2.1-1.955 2.22-2.043c1.066-1 2.776-.933 3.776.155l.156.155c1 1.066.933 2.776-.156 3.776l-1.62 1.488 6.197 9.818c.8 1.244.422 2.887-.822 3.687z" style="fill:url(#linearGradient1876)"/>
    <path d="m90.176 35.497h-.222c-1.777 0-3.22-1.444-3.22-3.22v-21.324c0-1.777 1.444-3.22 3.22-3.22h.222c1.777 0 3.22 1.444 3.22 3.22v7.708l4.176-3.865a3.25 3.25 0 0 1 4.554.178l.155.155a3.25 3.25 0 0 1-.178 4.553l-1.266 1.177 5.953 9.44c.466.733.6 1.577.422 2.42s-.69 1.555-1.422 2.02l-.178.11c-1.5.955-3.51.49-4.442-1l-5.33-8.374-2.443 2.266v4.53c0 1.777-1.444 3.22-3.22 3.22zm-.222-26.654c-1.155 0-2.1.955-2.1 2.1v21.323c0 1.155.955 2.1 2.1 2.1h.222c1.155 0 2.1-.955 2.1-2.1v-5.02l3.798-3.487 6.02 9.53c.622.977 1.932 1.288 2.9.666l.178-.11c.466-.29.8-.777.933-1.3.133-.555.022-1.11-.267-1.6l-6.44-10.217 1.955-1.8c.844-.8.91-2.132.11-2.976l-.155-.155c-.8-.866-2.132-.91-2.976-.133l-6.064 5.553v-10.264c0-1.155-.955-2.1-2.1-2.1z" style="fill:#6038b0"/>
    <path d="m75.14 32.297c.067 1.466-1.066 2.732-2.532 2.8l-2.843.155s-5.908-.51-6.242-5.198h.044v-.022c-.022-.133-.022-.267-.022-.4v-10.217c-.933-.378-1.62-1.266-1.688-2.332v-.222c-.067-1.177.644-2.2 1.688-2.62v-2.291c.005-1.47 1.195-2.66 2.665-2.665h.222c1.47.005 2.66 1.195 2.665 2.665v1.866l3.62-.178c1.466-.067 2.732 1.066 2.8 2.532v.222c.067 1.466-1.066 2.732-2.532 2.8l-3.91.2v10.35l3.265-.178c1.466-.067 2.732 1.066 2.8 2.532z" style="fill:url(#linearGradient1878)"/>
    <g style="fill:#6038b0">
     <path d="m69.764 35.785h-.044c-.067 0-6.397-.6-6.752-5.708l-.044-.49h.022v-9.817a3.25 3.25 0 0 1-1.688-2.665l-.022-.222a3.21 3.21 0 0 1 1.688-2.999v-1.932c0-1.777 1.444-3.22 3.22-3.22h.222c1.777 0 3.22 1.444 3.22 3.22v1.288l3.043-.155c.844-.044 1.688.244 2.3.822a3.21 3.21 0 0 1 1.066 2.221v.222c.044.866-.244 1.688-.822 2.3a3.21 3.21 0 0 1-2.22 1.066l-3.376.178v9.218l2.665-.133c1.777-.09 3.287 1.288 3.376 3.043l.022.222c.044.866-.244 1.688-.822 2.3a3.21 3.21 0 0 1-2.22 1.066zm-5.642-5.464c.533 3.71 5.22 4.31 5.686 4.353l2.8-.155c.555-.022 1.066-.267 1.466-.69.378-.422.578-.955.533-1.5l-.022-.222c-.067-1.155-1.044-2.066-2.22-2l-3.91.2.09-.666v-10.826l4.442-.222a2.03 2.03 0 0 0 1.444-.689c.378-.422.578-.955.533-1.5v-.222a2.08 2.08 0 0 0-.689-1.466c-.422-.378-.955-.578-1.5-.533l-4.22.222v-2.443c0-1.155-.955-2.1-2.1-2.1h-.255c-1.155 0-2.1.955-2.1 2.1v2.665l-.355.133a2.12 2.12 0 0 0-1.333 2.066l.022.222c.044.822.555 1.555 1.333 1.844l.355.133v10.573c0 .11 0 .2.022.31v.422z"/>
     <path d="m63.655 30.587-.133-.533-.533.067v-.09h.533l-.11-.51h.045l.11.51.555-.067v.555zm-.644-.555h.533z"/>
    </g>
    <path d="m34.49 23.457c0-.155-.022-.29-.044-.444l-.267-1.466c-.022-.067-.022-.133-.044-.2-.067-.29-.155-.6-.266-.89-.222-.69-.51-1.377-.844-2.044l-.622-1.088c-1.333-2.1-3.354-3.02-4.82-3.42-.555-.155-1.022-.222-1.333-.267-.29-.044-.466-.044-.466-.044-1.155-.11-2.177.29-2.865.69h-.022c-.622.355-1 .71-1 .71v-3.044c0-.466-.133-.91-.355-1.3-.133-.222-.29-.422-.466-.6l-.09-.09c-.444-.4-1-.644-1.62-.666h-.355a2.55 2.55 0 0 0-1.421.422 2.75 2.75 0 0 0-1 1.133c-.022.022-.022.067-.044.09-.11.266-.178.555-.2.866v20.48c0 .644.222 1.222.6 1.666.044.044.067.09.11.133.29.31.644.555 1.044.69.29.11.6.155.933.155h.222c.155 0 .29 0 .422-.044.777-.133 1.42-.578 1.82-1.222a8.06 8.06 0 0 0 3.154 1.066c1.266.156 2.554.022 3.798-.378 1.444-.466 2.688-1.177 3.643-2.288.29-.333.555-.71.8-1.11.022-.044.044-.067.067-.11 1.11-1.9 1.622-4.065 1.622-6.197l-.09-1.177zm-12.17-3.887c.555-.6 1.444-.777 2.377-.89.4-.044.844-.044 1.288.067a4.48 4.48 0 0 1 1.155.4c.067.044.355.244.733.644l.11.11a3.63 3.63 0 0 1 .466.555c.045.067.09.11.11.178l.333.578c.133.244.244.51.355.822.178.555.333 1.177.333 1.9v.755c0 .09-.022.178-.022.29 0 0-.29 3.954-2.266 4.487 0 0-4.354 1.732-5.42-2.22 0-.022-.022-.044-.022-.067v-3.332c0-.4-.044-.8-.067-1.2-.044-.49-.067-.977-.044-1.466 0-.222.044-.422.067-.644.044-.178.09-.333.155-.49.11-.178.222-.355.355-.49z" style="fill:url(#linearGradient1880)"/>
    <path d="m30.05 22.88c0-.067-.022-.11-.022-.155-.022-.133-.044-.244-.09-.378s-.067-.267-.11-.4v-.022c-.022-.09-.067-.155-.09-.244-.09-.244-.2-.467-.31-.71a3.79 3.79 0 0 0-.289-.511s-.022-.022-.022-.044l-.466-.666c-.11-.133-.222-.267-.355-.378l-.2-.2a3.22 3.22 0 0 0-.578-.466c-.022 0-.022-.022-.022-.022-.022-.022-.044-.022-.044-.044l-.067-.022a2.27 2.27 0 0 0-.489-.2 4.77 4.77 0 0 0-1.111-.267c-.378-.044-.755-.044-1.155 0-.666.067-1.688.2-2.443.8-.067.067-.155.133-.222.2-.222.222-.4.49-.533.822-.067.133-.11.31-.133.466-.155.777-.09 1.555-.044 2.332l.067.822v3.665l.022.067c.333 1.266.977 2.132 1.955 2.643.378.2.777.31 1.155.355.133.022.267.044.4.044s.267.022.4.022a6.93 6.93 0 0 0 2.243-.4c2.243-.622 2.6-4.487 2.643-4.953 0-.09.022-.2.022-.29a7.4 7.4 0 0 0-.111-1.866zm-2.932 6.064c-.022 0-1.9.755-3.31.022-.49-.244-.866-.666-1.133-1.222v-.022l-.133-.333c-.022-.09-.067-.2-.09-.29v-3.243c0-.4-.044-.777-.067-1.177-.067-.71-.11-1.377.022-2.02v-.022c.2-.955 1-1.244 2.377-1.4.51-.067 1.022 0 1.533.155l.578.222c.044.022.178.133.355.29.09.067.178.178.29.267.355.355.666.777.91 1.288.11.222.2.444.29.666a5.46 5.46 0 0 1 .333 1.733c.022.267 0 .533 0 .8 0 .09-.022.178-.022.267v.022c-.022.29-.09.755-.2 1.266-.267 1.133-.755 2.465-1.644 2.7zm2.932-6.064c0-.067-.022-.11-.022-.155-.022-.133-.044-.244-.09-.378s-.067-.267-.11-.4v-.022c-.022-.09-.067-.155-.09-.244-.09-.244-.2-.467-.31-.71a3.79 3.79 0 0 0-.289-.511s-.022-.022-.022-.044l-.466-.666c-.11-.133-.222-.267-.355-.378l-.2-.2a3.22 3.22 0 0 0-.578-.466c-.022 0-.022-.022-.022-.022-.022-.022-.044-.022-.044-.044l-.067-.022a2.27 2.27 0 0 0-.489-.2 4.77 4.77 0 0 0-1.111-.267c-.378-.044-.755-.044-1.155 0-.666.067-1.688.2-2.443.8-.067.067-.155.133-.222.2-.222.222-.4.49-.533.822-.067.133-.11.31-.133.466-.155.777-.09 1.555-.044 2.332l.067.822v3.665l.022.067c.333 1.266.977 2.132 1.955 2.643.378.2.777.31 1.155.355.133.022.267.044.4.044s.267.022.4.022a6.93 6.93 0 0 0 2.243-.4c2.243-.622 2.6-4.487 2.643-4.953 0-.09.022-.2.022-.29a7.4 7.4 0 0 0-.111-1.866zm-2.932 6.064c-.022 0-1.9.755-3.31.022-.49-.244-.866-.666-1.133-1.222v-.022l-.133-.333c-.022-.09-.067-.2-.09-.29v-3.243c0-.4-.044-.777-.067-1.177-.067-.71-.11-1.377.022-2.02v-.022c.2-.955 1-1.244 2.377-1.4.51-.067 1.022 0 1.533.155l.578.222c.044.022.178.133.355.29.09.067.178.178.29.267.355.355.666.777.91 1.288.11.222.2.444.29.666a5.46 5.46 0 0 1 .333 1.733c.022.267 0 .533 0 .8 0 .09-.022.178-.022.267v.022c-.022.29-.09.755-.2 1.266-.267 1.133-.755 2.465-1.644 2.7zm-10.55-14.66-.022.044-.2.355v.91l.11-.11c.022-.022.067-.044.09-.067l.022-.022v.755a.17.17 0 0 0 .089.044l.222.155v-2.6zm13.482 8.596c0-.067-.022-.11-.022-.155-.022-.133-.044-.244-.09-.378s-.067-.267-.11-.4v-.022c-.022-.09-.067-.155-.09-.244-.09-.244-.2-.467-.31-.71a3.79 3.79 0 0 0-.289-.511s-.022-.022-.022-.044l-.466-.666c-.11-.133-.222-.267-.355-.378l-.2-.2a3.22 3.22 0 0 0-.578-.466c-.022 0-.022-.022-.022-.022-.022-.022-.044-.022-.044-.044l-.067-.022a2.27 2.27 0 0 0-.489-.2 4.77 4.77 0 0 0-1.111-.267c-.378-.044-.755-.044-1.155 0-.666.067-1.688.2-2.443.8-.067.067-.155.133-.222.2-.222.222-.4.49-.533.822-.067.133-.11.31-.133.466-.155.777-.09 1.555-.044 2.332l.067.822v3.665l.022.067c.333 1.266.977 2.132 1.955 2.643.378.2.777.31 1.155.355.133.022.267.044.4.044s.267.022.4.022a6.93 6.93 0 0 0 2.243-.4c2.243-.622 2.6-4.487 2.643-4.953 0-.09.022-.2.022-.29a7.4 7.4 0 0 0-.111-1.866zm-2.932 6.064c-.022 0-1.9.755-3.31.022-.49-.244-.866-.666-1.133-1.222v-.022l-.133-.333c-.022-.09-.067-.2-.09-.29v-3.243c0-.4-.044-.777-.067-1.177-.067-.71-.11-1.377.022-2.02v-.022c.2-.955 1-1.244 2.377-1.4.51-.067 1.022 0 1.533.155l.578.222c.044.022.178.133.355.29.09.067.178.178.29.267.355.355.666.777.91 1.288.11.222.2.444.29.666a5.46 5.46 0 0 1 .333 1.733c.022.267 0 .533 0 .8 0 .09-.022.178-.022.267v.022c-.022.29-.09.755-.2 1.266-.267 1.133-.755 2.465-1.644 2.7zm2.932-6.064c0-.067-.022-.11-.022-.155-.022-.133-.044-.244-.09-.378s-.067-.267-.11-.4v-.022c-.022-.09-.067-.155-.09-.244-.09-.244-.2-.467-.31-.71a3.79 3.79 0 0 0-.289-.511s-.022-.022-.022-.044l-.466-.666c-.11-.133-.222-.267-.355-.378l-.2-.2a3.22 3.22 0 0 0-.578-.466c-.022 0-.022-.022-.022-.022-.022-.022-.044-.022-.044-.044l-.067-.022a2.27 2.27 0 0 0-.489-.2 4.77 4.77 0 0 0-1.111-.267c-.378-.044-.755-.044-1.155 0-.666.067-1.688.2-2.443.8-.067.067-.155.133-.222.2-.222.222-.4.49-.533.822-.067.133-.11.31-.133.466-.155.777-.09 1.555-.044 2.332l.067.822v3.665l.022.067c.333 1.266.977 2.132 1.955 2.643.378.2.777.31 1.155.355.133.022.267.044.4.044s.267.022.4.022a6.93 6.93 0 0 0 2.243-.4c2.243-.622 2.6-4.487 2.643-4.953 0-.09.022-.2.022-.29a7.4 7.4 0 0 0-.111-1.866zm-2.932 6.064c-.022 0-1.9.755-3.31.022-.49-.244-.866-.666-1.133-1.222v-.022l-.133-.333c-.022-.09-.067-.2-.09-.29v-3.243c0-.4-.044-.777-.067-1.177-.067-.71-.11-1.377.022-2.02v-.022c.2-.955 1-1.244 2.377-1.4.51-.067 1.022 0 1.533.155l.578.222c.044.022.178.133.355.29.09.067.178.178.29.267.355.355.666.777.91 1.288.11.222.2.444.29.666a5.46 5.46 0 0 1 .333 1.733c.022.267 0 .533 0 .8 0 .09-.022.178-.022.267v.022c-.022.29-.09.755-.2 1.266-.267 1.133-.755 2.465-1.644 2.7zm-10.55-14.66-.022.044-.2.355v.91l.11-.11c.022-.022.067-.044.09-.067l.022-.022v.755a.17.17 0 0 0 .089.044l.222.155v-2.6zm13.482 8.596c0-.067-.022-.11-.022-.155-.022-.133-.044-.244-.09-.378s-.067-.267-.11-.4v-.022c-.022-.09-.067-.155-.09-.244-.09-.244-.2-.467-.31-.71a3.79 3.79 0 0 0-.289-.511s-.022-.022-.022-.044l-.466-.666c-.11-.133-.222-.267-.355-.378l-.2-.2a3.22 3.22 0 0 0-.578-.466c-.022 0-.022-.022-.022-.022-.022-.022-.044-.022-.044-.044l-.067-.022a2.27 2.27 0 0 0-.489-.2 4.77 4.77 0 0 0-1.111-.267c-.378-.044-.755-.044-1.155 0-.666.067-1.688.2-2.443.8-.067.067-.155.133-.222.2-.222.222-.4.49-.533.822-.067.133-.11.31-.133.466-.155.777-.09 1.555-.044 2.332l.067.822v3.665l.022.067c.333 1.266.977 2.132 1.955 2.643.378.2.777.31 1.155.355.133.022.267.044.4.044s.267.022.4.022a6.93 6.93 0 0 0 2.243-.4c2.243-.622 2.6-4.487 2.643-4.953 0-.09.022-.2.022-.29a7.4 7.4 0 0 0-.111-1.866zm-2.932 6.064c-.022 0-1.9.755-3.31.022-.49-.244-.866-.666-1.133-1.222v-.022l-.133-.333c-.022-.09-.067-.2-.09-.29v-3.243c0-.4-.044-.777-.067-1.177-.067-.71-.11-1.377.022-2.02v-.022c.2-.955 1-1.244 2.377-1.4.51-.067 1.022 0 1.533.155l.578.222c.044.022.178.133.355.29.09.067.178.178.29.267.355.355.666.777.91 1.288.11.222.2.444.29.666a5.46 5.46 0 0 1 .333 1.733c.022.267 0 .533 0 .8 0 .09-.022.178-.022.267v.022c-.022.29-.09.755-.2 1.266-.267 1.133-.755 2.465-1.644 2.7zm2.932-6.064c0-.067-.022-.11-.022-.155-.022-.133-.044-.244-.09-.378s-.067-.267-.11-.4v-.022c-.022-.09-.067-.155-.09-.244-.09-.244-.2-.467-.31-.71a3.79 3.79 0 0 0-.289-.511s-.022-.022-.022-.044l-.466-.666c-.11-.133-.222-.267-.355-.378l-.2-.2a3.22 3.22 0 0 0-.578-.466c-.022 0-.022-.022-.022-.022-.022-.022-.044-.022-.044-.044l-.067-.022a2.27 2.27 0 0 0-.489-.2 4.77 4.77 0 0 0-1.111-.267c-.378-.044-.755-.044-1.155 0-.666.067-1.688.2-2.443.8-.067.067-.155.133-.222.2-.222.222-.4.49-.533.822-.067.133-.11.31-.133.466-.155.777-.09 1.555-.044 2.332l.067.822v3.665l.022.067c.333 1.266.977 2.132 1.955 2.643.378.2.777.31 1.155.355.133.022.267.044.4.044s.267.022.4.022a6.93 6.93 0 0 0 2.243-.4c2.243-.622 2.6-4.487 2.643-4.953 0-.09.022-.2.022-.29a7.4 7.4 0 0 0-.111-1.866zm-2.932 6.064c-.022 0-1.9.755-3.31.022-.49-.244-.866-.666-1.133-1.222v-.022l-.133-.333c-.022-.09-.067-.2-.09-.29v-3.243c0-.4-.044-.777-.067-1.177-.067-.71-.11-1.377.022-2.02v-.022c.2-.955 1-1.244 2.377-1.4.51-.067 1.022 0 1.533.155l.578.222c.044.022.178.133.355.29.09.067.178.178.29.267.355.355.666.777.91 1.288.11.222.2.444.29.666a5.46 5.46 0 0 1 .333 1.733c.022.267 0 .533 0 .8 0 .09-.022.178-.022.267v.022c-.022.29-.09.755-.2 1.266-.267 1.133-.755 2.465-1.644 2.7zm-10.55-14.66-.022.044-.2.355v.91l.11-.11c.022-.022.067-.044.09-.067l.022-.022v.755a.17.17 0 0 0 .089.044l.222.155v-2.6zm13.482 8.596c0-.067-.022-.11-.022-.155-.022-.133-.044-.244-.09-.378s-.067-.267-.11-.4v-.022c-.022-.09-.067-.155-.09-.244-.09-.244-.2-.467-.31-.71a3.79 3.79 0 0 0-.289-.511s-.022-.022-.022-.044l-.466-.666c-.11-.133-.222-.267-.355-.378l-.2-.2a3.22 3.22 0 0 0-.578-.466c-.022 0-.022-.022-.022-.022-.022-.022-.044-.022-.044-.044l-.067-.022a2.27 2.27 0 0 0-.489-.2 4.77 4.77 0 0 0-1.111-.267c-.378-.044-.755-.044-1.155 0-.666.067-1.688.2-2.443.8-.067.067-.155.133-.222.2-.222.222-.4.49-.533.822-.067.133-.11.31-.133.466-.155.777-.09 1.555-.044 2.332l.067.822v3.665l.022.067c.333 1.266.977 2.132 1.955 2.643.378.2.777.31 1.155.355.133.022.267.044.4.044s.267.022.4.022a6.93 6.93 0 0 0 2.243-.4c2.243-.622 2.6-4.487 2.643-4.953 0-.09.022-.2.022-.29a7.4 7.4 0 0 0-.111-1.866zm-2.932 6.064c-.022 0-1.9.755-3.31.022-.49-.244-.866-.666-1.133-1.222v-.022l-.133-.333c-.022-.09-.067-.2-.09-.29v-3.243c0-.4-.044-.777-.067-1.177-.067-.71-.11-1.377.022-2.02v-.022c.2-.955 1-1.244 2.377-1.4.51-.067 1.022 0 1.533.155l.578.222c.044.022.178.133.355.29.09.067.178.178.29.267.355.355.666.777.91 1.288.11.222.2.444.29.666a5.46 5.46 0 0 1 .333 1.733c.022.267 0 .533 0 .8 0 .09-.022.178-.022.267v.022c-.022.29-.09.755-.2 1.266-.267 1.133-.755 2.465-1.644 2.7zm2.932-6.064c0-.067-.022-.11-.022-.155-.022-.133-.044-.244-.09-.378s-.067-.267-.11-.4v-.022c-.022-.09-.067-.155-.09-.244-.09-.244-.2-.467-.31-.71a3.79 3.79 0 0 0-.289-.511s-.022-.022-.022-.044l-.466-.666c-.11-.133-.222-.267-.355-.378l-.2-.2a3.22 3.22 0 0 0-.578-.466c-.022 0-.022-.022-.022-.022-.022-.022-.044-.022-.044-.044l-.067-.022a2.27 2.27 0 0 0-.489-.2 4.77 4.77 0 0 0-1.111-.267c-.378-.044-.755-.044-1.155 0-.666.067-1.688.2-2.443.8-.067.067-.155.133-.222.2-.222.222-.4.49-.533.822-.067.133-.11.31-.133.466-.155.777-.09 1.555-.044 2.332l.067.822v3.665l.022.067c.333 1.266.977 2.132 1.955 2.643.378.2.777.31 1.155.355.133.022.267.044.4.044s.267.022.4.022a6.93 6.93 0 0 0 2.243-.4c2.243-.622 2.6-4.487 2.643-4.953 0-.09.022-.2.022-.29a7.4 7.4 0 0 0-.111-1.866zm-2.932 6.064c-.022 0-1.9.755-3.31.022-.49-.244-.866-.666-1.133-1.222v-.022l-.133-.333c-.022-.09-.067-.2-.09-.29v-3.243c0-.4-.044-.777-.067-1.177-.067-.71-.11-1.377.022-2.02v-.022c.2-.955 1-1.244 2.377-1.4.51-.067 1.022 0 1.533.155l.578.222c.044.022.178.133.355.29.09.067.178.178.29.267.355.355.666.777.91 1.288.11.222.2.444.29.666a5.46 5.46 0 0 1 .333 1.733c.022.267 0 .533 0 .8 0 .09-.022.178-.022.267v.022c-.022.29-.09.755-.2 1.266-.267 1.133-.755 2.465-1.644 2.7zm-10.55-14.66-.022.044-.2.355v.91l.11-.11c.022-.022.067-.044.09-.067l.022-.022v.755a.17.17 0 0 0 .089.044l.222.155v-2.6zm13.482 8.596c0-.067-.022-.11-.022-.155-.022-.133-.044-.244-.09-.378s-.067-.267-.11-.4v-.022c-.022-.09-.067-.155-.09-.244-.09-.244-.2-.467-.31-.71a3.79 3.79 0 0 0-.289-.511s-.022-.022-.022-.044l-.466-.666c-.11-.133-.222-.267-.355-.378l-.2-.2a3.22 3.22 0 0 0-.578-.466c-.022 0-.022-.022-.022-.022-.022-.022-.044-.022-.044-.044l-.067-.022a2.27 2.27 0 0 0-.489-.2 4.77 4.77 0 0 0-1.111-.267c-.378-.044-.755-.044-1.155 0-.666.067-1.688.2-2.443.8-.067.067-.155.133-.222.2-.222.222-.4.49-.533.822-.067.133-.11.31-.133.466-.155.777-.09 1.555-.044 2.332l.067.822v3.665l.022.067c.333 1.266.977 2.132 1.955 2.643.378.2.777.31 1.155.355.133.022.267.044.4.044s.267.022.4.022a6.93 6.93 0 0 0 2.243-.4c2.243-.622 2.6-4.487 2.643-4.953 0-.09.022-.2.022-.29a7.4 7.4 0 0 0-.111-1.866zm-2.932 6.064c-.022 0-1.9.755-3.31.022-.49-.244-.866-.666-1.133-1.222v-.022l-.133-.333c-.022-.09-.067-.2-.09-.29v-3.243c0-.4-.044-.777-.067-1.177-.067-.71-.11-1.377.022-2.02v-.022c.2-.955 1-1.244 2.377-1.4.51-.067 1.022 0 1.533.155l.578.222c.044.022.178.133.355.29.09.067.178.178.29.267.355.355.666.777.91 1.288.11.222.2.444.29.666a5.46 5.46 0 0 1 .333 1.733c.022.267 0 .533 0 .8 0 .09-.022.178-.022.267v.022c-.022.29-.09.755-.2 1.266-.267 1.133-.755 2.465-1.644 2.7zm2.932-6.064c0-.067-.022-.11-.022-.155-.022-.133-.044-.244-.09-.378s-.067-.267-.11-.4v-.022c-.022-.09-.067-.155-.09-.244-.09-.244-.2-.467-.31-.71a3.79 3.79 0 0 0-.289-.511s-.022-.022-.022-.044l-.466-.666c-.11-.133-.222-.267-.355-.378l-.2-.2a3.22 3.22 0 0 0-.578-.466c-.022 0-.022-.022-.022-.022-.022-.022-.044-.022-.044-.044l-.067-.022a2.27 2.27 0 0 0-.489-.2 4.77 4.77 0 0 0-1.111-.267c-.378-.044-.755-.044-1.155 0-.666.067-1.688.2-2.443.8-.067.067-.155.133-.222.2-.222.222-.4.49-.533.822-.067.133-.11.31-.133.466-.155.777-.09 1.555-.044 2.332l.067.822v3.665l.022.067c.333 1.266.977 2.132 1.955 2.643.378.2.777.31 1.155.355.133.022.267.044.4.044s.267.022.4.022a6.93 6.93 0 0 0 2.243-.4c2.243-.622 2.6-4.487 2.643-4.953 0-.09.022-.2.022-.29a7.4 7.4 0 0 0-.111-1.866zm-2.932 6.064c-.022 0-1.9.755-3.31.022-.49-.244-.866-.666-1.133-1.222v-.022l-.133-.333c-.022-.09-.067-.2-.09-.29v-3.243c0-.4-.044-.777-.067-1.177-.067-.71-.11-1.377.022-2.02v-.022c.2-.955 1-1.244 2.377-1.4.51-.067 1.022 0 1.533.155l.578.222c.044.022.178.133.355.29.09.067.178.178.29.267.355.355.666.777.91 1.288.11.222.2.444.29.666a5.46 5.46 0 0 1 .333 1.733c.022.267 0 .533 0 .8 0 .09-.022.178-.022.267v.022c-.022.29-.09.755-.2 1.266-.267 1.133-.755 2.465-1.644 2.7zm-10.55-14.66-.022.044-.2.355v.91l.11-.11c.022-.022.067-.044.09-.067l.022-.022v.755a.17.17 0 0 0 .089.044l.222.155v-2.6zm13.482 8.596c0-.067-.022-.11-.022-.155-.022-.133-.044-.244-.09-.378s-.067-.267-.11-.4v-.022c-.022-.09-.067-.155-.09-.244-.09-.244-.2-.467-.31-.71a3.79 3.79 0 0 0-.289-.511s-.022-.022-.022-.044l-.466-.666c-.11-.133-.222-.267-.355-.378l-.2-.2a3.22 3.22 0 0 0-.578-.466c-.022 0-.022-.022-.022-.022-.022-.022-.044-.022-.044-.044l-.067-.022a2.27 2.27 0 0 0-.489-.2 4.77 4.77 0 0 0-1.111-.267c-.378-.044-.755-.044-1.155 0-.666.067-1.688.2-2.443.8-.067.067-.155.133-.222.2-.222.222-.4.49-.533.822-.067.133-.11.31-.133.466-.155.777-.09 1.555-.044 2.332l.067.822v3.665l.022.067c.333 1.266.977 2.132 1.955 2.643.378.2.777.31 1.155.355.133.022.267.044.4.044s.267.022.4.022a6.93 6.93 0 0 0 2.243-.4c2.243-.622 2.6-4.487 2.643-4.953 0-.09.022-.2.022-.29a7.4 7.4 0 0 0-.111-1.866zm-2.932 6.064c-.022 0-1.9.755-3.31.022-.49-.244-.866-.666-1.133-1.222v-.022l-.133-.333c-.022-.09-.067-.2-.09-.29v-3.243c0-.4-.044-.777-.067-1.177-.067-.71-.11-1.377.022-2.02v-.022c.2-.955 1-1.244 2.377-1.4.51-.067 1.022 0 1.533.155l.578.222c.044.022.178.133.355.29.09.067.178.178.29.267.355.355.666.777.91 1.288.11.222.2.444.29.666a5.46 5.46 0 0 1 .333 1.733c.022.267 0 .533 0 .8 0 .09-.022.178-.022.267v.022c-.022.29-.09.755-.2 1.266-.267 1.133-.755 2.465-1.644 2.7zm2.932-6.064c0-.067-.022-.11-.022-.155-.022-.133-.044-.244-.09-.378s-.067-.267-.11-.4v-.022c-.022-.09-.067-.155-.09-.244-.09-.244-.2-.467-.31-.71a3.79 3.79 0 0 0-.289-.511s-.022-.022-.022-.044l-.466-.666c-.11-.133-.222-.267-.355-.378l-.2-.2a3.22 3.22 0 0 0-.578-.466c-.022 0-.022-.022-.022-.022-.022-.022-.044-.022-.044-.044l-.067-.022a2.27 2.27 0 0 0-.489-.2 4.77 4.77 0 0 0-1.111-.267c-.378-.044-.755-.044-1.155 0-.666.067-1.688.2-2.443.8-.067.067-.155.133-.222.2-.222.222-.4.49-.533.822-.067.133-.11.31-.133.466-.155.777-.09 1.555-.044 2.332l.067.822v3.665l.022.067c.333 1.266.977 2.132 1.955 2.643.378.2.777.31 1.155.355.133.022.267.044.4.044s.267.022.4.022a6.93 6.93 0 0 0 2.243-.4c2.243-.622 2.6-4.487 2.643-4.953 0-.09.022-.2.022-.29a7.4 7.4 0 0 0-.111-1.866zm-2.932 6.064c-.022 0-1.9.755-3.31.022-.49-.244-.866-.666-1.133-1.222v-.022l-.133-.333c-.022-.09-.067-.2-.09-.29v-3.243c0-.4-.044-.777-.067-1.177-.067-.71-.11-1.377.022-2.02v-.022c.2-.955 1-1.244 2.377-1.4.51-.067 1.022 0 1.533.155l.578.222c.044.022.178.133.355.29.09.067.178.178.29.267.355.355.666.777.91 1.288.11.222.2.444.29.666a5.46 5.46 0 0 1 .333 1.733c.022.267 0 .533 0 .8 0 .09-.022.178-.022.267v.022c-.022.29-.09.755-.2 1.266-.267 1.133-.755 2.465-1.644 2.7zm-10.55-14.66-.022.044-.2.355v.91l.11-.11c.022-.022.067-.044.09-.067l.022-.022v.755a.17.17 0 0 0 .089.044l.222.155v-2.6zm13.482 8.596c0-.067-.022-.11-.022-.155-.022-.133-.044-.244-.09-.378s-.067-.267-.11-.4v-.022c-.022-.09-.067-.155-.09-.244-.09-.244-.2-.467-.31-.71a3.79 3.79 0 0 0-.289-.511s-.022-.022-.022-.044l-.466-.666c-.11-.133-.222-.267-.355-.378l-.2-.2a3.22 3.22 0 0 0-.578-.466c-.022 0-.022-.022-.022-.022-.022-.022-.044-.022-.044-.044l-.067-.022a2.27 2.27 0 0 0-.489-.2 4.77 4.77 0 0 0-1.111-.267c-.378-.044-.755-.044-1.155 0-.666.067-1.688.2-2.443.8-.067.067-.155.133-.222.2-.222.222-.4.49-.533.822-.067.133-.11.31-.133.466-.155.777-.09 1.555-.044 2.332l.067.822v3.665l.022.067c.333 1.266.977 2.132 1.955 2.643.378.2.777.31 1.155.355.133.022.267.044.4.044s.267.022.4.022a6.93 6.93 0 0 0 2.243-.4c2.243-.622 2.6-4.487 2.643-4.953 0-.09.022-.2.022-.29a7.4 7.4 0 0 0-.111-1.866zm-2.932 6.064c-.022 0-1.9.755-3.31.022-.49-.244-.866-.666-1.133-1.222v-.022l-.133-.333c-.022-.09-.067-.2-.09-.29v-3.243c0-.4-.044-.777-.067-1.177-.067-.71-.11-1.377.022-2.02v-.022c.2-.955 1-1.244 2.377-1.4.51-.067 1.022 0 1.533.155l.578.222c.044.022.178.133.355.29.09.067.178.178.29.267.355.355.666.777.91 1.288.11.222.2.444.29.666a5.46 5.46 0 0 1 .333 1.733c.022.267 0 .533 0 .8 0 .09-.022.178-.022.267v.022c-.022.29-.09.755-.2 1.266-.267 1.133-.755 2.465-1.644 2.7zm2.932-6.064c0-.067-.022-.11-.022-.155-.022-.133-.044-.244-.09-.378s-.067-.267-.11-.4v-.022c-.022-.09-.067-.155-.09-.244-.09-.244-.2-.467-.31-.71a3.79 3.79 0 0 0-.289-.511s-.022-.022-.022-.044l-.466-.666c-.11-.133-.222-.267-.355-.378l-.2-.2a3.22 3.22 0 0 0-.578-.466c-.022 0-.022-.022-.022-.022-.022-.022-.044-.022-.044-.044l-.067-.022a2.27 2.27 0 0 0-.489-.2 4.77 4.77 0 0 0-1.111-.267c-.378-.044-.755-.044-1.155 0-.666.067-1.688.2-2.443.8-.067.067-.155.133-.222.2-.222.222-.4.49-.533.822-.067.133-.11.31-.133.466-.155.777-.09 1.555-.044 2.332l.067.822v3.665l.022.067c.333 1.266.977 2.132 1.955 2.643.378.2.777.31 1.155.355.133.022.267.044.4.044s.267.022.4.022a6.93 6.93 0 0 0 2.243-.4c2.243-.622 2.6-4.487 2.643-4.953 0-.09.022-.2.022-.29a7.4 7.4 0 0 0-.111-1.866zm-2.932 6.064c-.022 0-1.9.755-3.31.022-.49-.244-.866-.666-1.133-1.222v-.022l-.133-.333c-.022-.09-.067-.2-.09-.29v-3.243c0-.4-.044-.777-.067-1.177-.067-.71-.11-1.377.022-2.02v-.022c.2-.955 1-1.244 2.377-1.4.51-.067 1.022 0 1.533.155l.578.222c.044.022.178.133.355.29.09.067.178.178.29.267.355.355.666.777.91 1.288.11.222.2.444.29.666a5.46 5.46 0 0 1 .333 1.733c.022.267 0 .533 0 .8 0 .09-.022.178-.022.267v.022c-.022.29-.09.755-.2 1.266-.267 1.133-.755 2.465-1.644 2.7zm-10.55-14.66-.022.044-.2.355v.91l.11-.11c.022-.022.067-.044.09-.067l.022-.022v.755a.17.17 0 0 0 .089.044l.222.044v-2.487zm13.482 8.596c0-.067-.022-.11-.022-.155-.022-.133-.044-.244-.09-.378s-.067-.267-.11-.4v-.022c-.022-.09-.067-.155-.09-.244-.09-.244-.2-.467-.31-.71a3.79 3.79 0 0 0-.289-.511s-.022-.022-.022-.044l-.466-.666c-.11-.133-.222-.267-.355-.378l-.2-.2a3.22 3.22 0 0 0-.578-.466c-.022 0-.022-.022-.022-.022-.022-.022-.044-.022-.044-.044l-.067-.022a2.27 2.27 0 0 0-.489-.2 4.77 4.77 0 0 0-1.111-.267c-.378-.044-.755-.044-1.155 0-.666.067-1.688.2-2.443.8-.067.067-.155.133-.222.2-.222.222-.4.49-.533.822-.067.133-.11.31-.133.466-.155.777-.09 1.555-.044 2.332l.067.822v3.665l.022.067c.333 1.266.977 2.132 1.955 2.643.378.2.777.31 1.155.355.133.022.267.044.4.044s.267.022.4.022a6.93 6.93 0 0 0 2.243-.4c2.243-.622 2.6-4.487 2.643-4.953 0-.09.022-.2.022-.29a7.4 7.4 0 0 0-.111-1.866zm-2.932 6.064c-.022 0-1.9.755-3.31.022-.49-.244-.866-.666-1.133-1.222v-.022l-.133-.333c-.022-.09-.067-.2-.09-.29v-3.243c0-.4-.044-.777-.067-1.177-.067-.71-.11-1.377.022-2.02v-.022c.2-.955 1-1.244 2.377-1.4.51-.067 1.022 0 1.533.155l.578.222c.044.022.178.133.355.29.09.067.178.178.29.267.355.355.666.777.91 1.288.11.222.2.444.29.666a5.46 5.46 0 0 1 .333 1.733c.022.267 0 .533 0 .8 0 .09-.022.178-.022.267v.022c-.022.29-.09.755-.2 1.266-.267 1.133-.755 2.465-1.644 2.7zm2.932-6.064c0-.067-.022-.11-.022-.155-.022-.133-.044-.244-.09-.378s-.067-.267-.11-.4v-.022c-.022-.09-.067-.155-.09-.244-.09-.244-.2-.467-.31-.71a3.79 3.79 0 0 0-.289-.511s-.022-.022-.022-.044l-.466-.666c-.11-.133-.222-.267-.355-.378l-.2-.2a3.22 3.22 0 0 0-.578-.466c-.022 0-.022-.022-.022-.022-.022-.022-.044-.022-.044-.044l-.067-.022a2.27 2.27 0 0 0-.489-.2 4.77 4.77 0 0 0-1.111-.267c-.378-.044-.755-.044-1.155 0-.666.067-1.688.2-2.443.8-.067.067-.155.133-.222.2-.222.222-.4.49-.533.822-.067.133-.11.31-.133.466-.155.777-.09 1.555-.044 2.332l.067.822v3.665l.022.067c.333 1.266.977 2.132 1.955 2.643.378.2.777.31 1.155.355.133.022.267.044.4.044s.267.022.4.022a6.93 6.93 0 0 0 2.243-.4c2.243-.622 2.6-4.487 2.643-4.953 0-.09.022-.2.022-.29a7.4 7.4 0 0 0-.111-1.866zm-2.932 6.064c-.022 0-1.9.755-3.31.022-.49-.244-.866-.666-1.133-1.222v-.022l-.133-.333c-.022-.09-.067-.2-.09-.29v-3.243c0-.4-.044-.777-.067-1.177-.067-.71-.11-1.377.022-2.02v-.022c.2-.955 1-1.244 2.377-1.4.51-.067 1.022 0 1.533.155l.578.222c.044.022.178.133.355.29.09.067.178.178.29.267.355.355.666.777.91 1.288.11.222.2.444.29.666a5.46 5.46 0 0 1 .333 1.733c.022.267 0 .533 0 .8 0 .09-.022.178-.022.267v.022c-.022.29-.09.755-.2 1.266-.267 1.133-.755 2.465-1.644 2.7zm-10.596-14.616-.2.355v.91l.11-.11c.022-.022.067-.044.09-.067l.022-.022v.755c.024.023.055.04.09.044l.222.044v-2.487l-.31.533zm18.525 9.307c-.067-.733-.178-1.488-.333-2.22l-.31-1.11c0-.044-.022-.067-.022-.09-.222-.69-.51-1.355-.844-2-.2-.4-.444-.8-.69-1.2a9.57 9.57 0 0 0-1.066-1.355c-1.244-1.266-2.732-1.932-3.91-2.288-.533-.155-1-.244-1.355-.29-.378-.067-.644-.067-.733-.067-1.4-.133-2.6.378-3.376.866v-1.932c0-.178-.022-.355-.044-.533-.044-.333-.156-.622-.31-.91a3.11 3.11 0 0 0-.489-.711l-.067-.067a3.2 3.2 0 0 0-.6-.489 3.05 3.05 0 0 0-1.533-.489h-.4a3.2 3.2 0 0 0-1.133.2c-.51.2-.977.533-1.31.933-.222.267-.422.578-.555.933v.022a3.2 3.2 0 0 0-.2 1.133v20.324c0 .622.178 1.222.49 1.7.11.178.222.333.378.49a3.08 3.08 0 0 0 1.022.733c.4.2.866.29 1.333.29h.222c.31 0 .622-.044.91-.133.578-.178 1.088-.51 1.5-.955.622.31 1.244.555 1.9.71h.022c1.6.4 3.332.31 5.02-.244 2.02-.644 3.51-1.733 4.53-3.265l.222-.355c.067-.11.133-.222.178-.333 1.044-1.9 1.555-4.065 1.555-6.264.022-.355 0-.69-.022-1.044zm-3.332 7.996c-.844 1-2 1.733-3.465 2.2-2.266.733-4.576.51-6.486-.644l-.466-.267-.29.466c-.4.622-1.066 1-1.777 1h-.231a2.72 2.72 0 0 1-.422-.044 2.05 2.05 0 0 1-1.111-.622 2.27 2.27 0 0 1-.555-1.044 2.46 2.46 0 0 1-.044-.422v-20.324c0-1.133.91-2.066 2.02-2.1h.378a2.08 2.08 0 0 1 1.688.955 2.07 2.07 0 0 1 .333.866c.022.09.022.178.022.29v4.33l.933-.89c.022-.022 1.555-1.444 3.443-1.266h.044s.09 0 .244.022c.267.022.733.09 1.333.244 1.377.355 3.332 1.222 4.598 3.22a12.07 12.07 0 0 1 1.088 2.132c.044.09.067.178.11.267l.2.578.29 1 .267 1.5c.067.555.11 1.11.09 1.644 0 1.066-.133 2.1-.4 3.1s-.666 1.955-1.177 2.843c-.067.09-.11.178-.178.266-.133.267-.31.49-.49.69zm-1.688-8.907c-.022-.133-.044-.244-.09-.378s-.067-.267-.11-.4v-.022c-.022-.09-.067-.155-.09-.244-.09-.244-.2-.467-.31-.71a3.79 3.79 0 0 0-.289-.511s-.022-.022-.022-.044l-.466-.666c-.11-.133-.222-.267-.355-.378l-.2-.2a3.22 3.22 0 0 0-.578-.466c-.022 0-.022-.022-.022-.022-.022-.022-.044-.022-.044-.044l-.067-.022a2.27 2.27 0 0 0-.489-.2 4.77 4.77 0 0 0-1.111-.267c-.378-.044-.755-.044-1.155 0-.666.067-1.688.2-2.443.8-.067.067-.155.133-.222.2-.222.222-.4.49-.533.822-.067.133-.11.31-.133.466-.155.777-.09 1.555-.044 2.332l.067.822v3.665l.022.067c.333 1.266.977 2.132 1.955 2.643.378.2.777.31 1.155.355.133.022.267.044.4.044s.267.022.4.022a6.93 6.93 0 0 0 2.243-.4c2.243-.622 2.6-4.487 2.643-4.953 0-.09.022-.2.022-.29a7.4 7.4 0 0 0-.111-1.866c-.022-.067-.022-.11-.022-.155zm-2.9 6.22c-.022 0-1.9.755-3.31.022-.49-.244-.866-.666-1.133-1.222v-.022l-.133-.333c-.022-.09-.067-.2-.09-.29v-3.243c0-.4-.044-.777-.067-1.177-.067-.71-.11-1.377.022-2.02v-.022c.2-.955 1-1.244 2.377-1.4.51-.067 1.022 0 1.533.155l.578.222c.044.022.178.133.355.29.09.067.178.178.29.267.355.355.666.777.91 1.288.11.222.2.444.29.666a5.46 5.46 0 0 1 .333 1.733c.022.267 0 .533 0 .8 0 .09-.022.178-.022.267v.022c-.022.29-.09.755-.2 1.266-.267 1.133-.755 2.465-1.644 2.7zm-10.55-14.66-.022.044-.2.355v.91l.11-.11c.022-.022.067-.044.09-.067l.022-.022v.755a.17.17 0 0 0 .089.044l.222.044v-2.487zm13.473 8.596c0-.067-.022-.11-.022-.155-.022-.133-.044-.244-.09-.378s-.067-.267-.11-.4v-.022c-.022-.09-.067-.155-.09-.244-.09-.244-.2-.467-.31-.71a3.79 3.79 0 0 0-.289-.511s-.022-.022-.022-.044l-.466-.666c-.11-.133-.222-.267-.355-.378l-.2-.2a3.22 3.22 0 0 0-.578-.466c-.022 0-.022-.022-.022-.022-.022-.022-.044-.022-.044-.044l-.067-.022a2.27 2.27 0 0 0-.489-.2 4.77 4.77 0 0 0-1.111-.267c-.378-.044-.755-.044-1.155 0-.666.067-1.688.2-2.443.8-.067.067-.155.133-.222.2-.222.222-.4.49-.533.822-.067.133-.11.31-.133.466-.155.777-.09 1.555-.044 2.332l.067.822v3.665l.022.067c.333 1.266.977 2.132 1.955 2.643.378.2.777.31 1.155.355.133.022.267.044.4.044s.267.022.4.022a6.93 6.93 0 0 0 2.243-.4c2.243-.622 2.6-4.487 2.643-4.953 0-.09.022-.2.022-.29a7.4 7.4 0 0 0-.111-1.866zm-2.932 6.064c-.022 0-1.9.755-3.31.022-.49-.244-.866-.666-1.133-1.222v-.022l-.133-.333c-.022-.09-.067-.2-.09-.29v-3.243c0-.4-.044-.777-.067-1.177-.067-.71-.11-1.377.022-2.02v-.022c.2-.955 1-1.244 2.377-1.4.51-.067 1.022 0 1.533.155l.578.222c.044.022.178.133.355.29.09.067.178.178.29.267.355.355.666.777.91 1.288.11.222.2.444.29.666a5.46 5.46 0 0 1 .333 1.733c.022.267 0 .533 0 .8 0 .09-.022.178-.022.267v.022c-.022.29-.09.755-.2 1.266-.267 1.133-.755 2.465-1.644 2.7zm2.932-6.064c0-.067-.022-.11-.022-.155-.022-.133-.044-.244-.09-.378s-.067-.267-.11-.4v-.022c-.022-.09-.067-.155-.09-.244-.09-.244-.2-.467-.31-.71a3.79 3.79 0 0 0-.289-.511s-.022-.022-.022-.044l-.466-.666c-.11-.133-.222-.267-.355-.378l-.2-.2a3.22 3.22 0 0 0-.578-.466c-.022 0-.022-.022-.022-.022-.022-.022-.044-.022-.044-.044l-.067-.022a2.27 2.27 0 0 0-.489-.2 4.77 4.77 0 0 0-1.111-.267c-.378-.044-.755-.044-1.155 0-.666.067-1.688.2-2.443.8-.067.067-.155.133-.222.2-.222.222-.4.49-.533.822-.067.133-.11.31-.133.466-.155.777-.09 1.555-.044 2.332l.067.822v3.665l.022.067c.333 1.266.977 2.132 1.955 2.643.378.2.777.31 1.155.355.133.022.267.044.4.044s.267.022.4.022a6.93 6.93 0 0 0 2.243-.4c2.243-.622 2.6-4.487 2.643-4.953 0-.09.022-.2.022-.29a7.4 7.4 0 0 0-.111-1.866zm-2.932 6.064c-.022 0-1.9.755-3.31.022-.49-.244-.866-.666-1.133-1.222v-.022l-.133-.333c-.022-.09-.067-.2-.09-.29v-3.243c0-.4-.044-.777-.067-1.177-.067-.71-.11-1.377.022-2.02v-.022c.2-.955 1-1.244 2.377-1.4.51-.067 1.022 0 1.533.155l.578.222c.044.022.178.133.355.29.09.067.178.178.29.267.355.355.666.777.91 1.288.11.222.2.444.29.666a5.46 5.46 0 0 1 .333 1.733c.022.267 0 .533 0 .8 0 .09-.022.178-.022.267v.022c-.022.29-.09.755-.2 1.266-.267 1.133-.755 2.465-1.644 2.7zm-10.55-14.66-.022.044-.2.355v.91l.11-.11c.022-.022.067-.044.09-.067l.022-.022v.755a.17.17 0 0 0 .089.044l.222.155v-2.6zm13.482 8.596c0-.067-.022-.11-.022-.155-.022-.133-.044-.244-.09-.378s-.067-.267-.11-.4v-.022c-.022-.09-.067-.155-.09-.244-.09-.244-.2-.467-.31-.71a3.79 3.79 0 0 0-.289-.511s-.022-.022-.022-.044l-.466-.666c-.11-.133-.222-.267-.355-.378l-.2-.2a3.22 3.22 0 0 0-.578-.466c-.022 0-.022-.022-.022-.022-.022-.022-.044-.022-.044-.044l-.067-.022a2.27 2.27 0 0 0-.489-.2 4.77 4.77 0 0 0-1.111-.267c-.378-.044-.755-.044-1.155 0-.666.067-1.688.2-2.443.8-.067.067-.155.133-.222.2-.222.222-.4.49-.533.822-.067.133-.11.31-.133.466-.155.777-.09 1.555-.044 2.332l.067.822v3.665l.022.067c.333 1.266.977 2.132 1.955 2.643.378.2.777.31 1.155.355.133.022.267.044.4.044s.267.022.4.022a6.93 6.93 0 0 0 2.243-.4c2.243-.622 2.6-4.487 2.643-4.953 0-.09.022-.2.022-.29a7.4 7.4 0 0 0-.111-1.866zm-2.932 6.064c-.022 0-1.9.755-3.31.022-.49-.244-.866-.666-1.133-1.222v-.022l-.133-.333c-.022-.09-.067-.2-.09-.29v-3.243c0-.4-.044-.777-.067-1.177-.067-.71-.11-1.377.022-2.02v-.022c.2-.955 1-1.244 2.377-1.4.51-.067 1.022 0 1.533.155l.578.222c.044.022.178.133.355.29.09.067.178.178.29.267.355.355.666.777.91 1.288.11.222.2.444.29.666a5.46 5.46 0 0 1 .333 1.733c.022.267 0 .533 0 .8 0 .09-.022.178-.022.267v.022c-.022.29-.09.755-.2 1.266-.267 1.133-.755 2.465-1.644 2.7zm2.932-6.064c0-.067-.022-.11-.022-.155-.022-.133-.044-.244-.09-.378s-.067-.267-.11-.4v-.022c-.022-.09-.067-.155-.09-.244-.09-.244-.2-.467-.31-.71a3.79 3.79 0 0 0-.289-.511s-.022-.022-.022-.044l-.466-.666c-.11-.133-.222-.267-.355-.378l-.2-.2a3.22 3.22 0 0 0-.578-.466c-.022 0-.022-.022-.022-.022-.022-.022-.044-.022-.044-.044l-.067-.022a2.27 2.27 0 0 0-.489-.2 4.77 4.77 0 0 0-1.111-.267c-.378-.044-.755-.044-1.155 0-.666.067-1.688.2-2.443.8-.067.067-.155.133-.222.2-.222.222-.4.49-.533.822-.067.133-.11.31-.133.466-.155.777-.09 1.555-.044 2.332l.067.822v3.665l.022.067c.333 1.266.977 2.132 1.955 2.643.378.2.777.31 1.155.355.133.022.267.044.4.044s.267.022.4.022a6.93 6.93 0 0 0 2.243-.4c2.243-.622 2.6-4.487 2.643-4.953 0-.09.022-.2.022-.29a7.4 7.4 0 0 0-.111-1.866zm-2.932 6.064c-.022 0-1.9.755-3.31.022-.49-.244-.866-.666-1.133-1.222v-.022l-.133-.333c-.022-.09-.067-.2-.09-.29v-3.243c0-.4-.044-.777-.067-1.177-.067-.71-.11-1.377.022-2.02v-.022c.2-.955 1-1.244 2.377-1.4.51-.067 1.022 0 1.533.155l.578.222c.044.022.178.133.355.29.09.067.178.178.29.267.355.355.666.777.91 1.288.11.222.2.444.29.666a5.46 5.46 0 0 1 .333 1.733c.022.267 0 .533 0 .8 0 .09-.022.178-.022.267v.022c-.022.29-.09.755-.2 1.266-.267 1.133-.755 2.465-1.644 2.7zm-10.55-14.66-.022.044-.2.355v.91l.11-.11c.022-.022.067-.044.09-.067l.022-.022v.755a.17.17 0 0 0 .089.044l.222.155v-2.6zm13.482 8.596c0-.067-.022-.11-.022-.155-.022-.133-.044-.244-.09-.378s-.067-.267-.11-.4v-.022c-.022-.09-.067-.155-.09-.244-.09-.244-.2-.467-.31-.71a3.79 3.79 0 0 0-.289-.511s-.022-.022-.022-.044l-.466-.666c-.11-.133-.222-.267-.355-.378l-.2-.2a3.22 3.22 0 0 0-.578-.466c-.022 0-.022-.022-.022-.022-.022-.022-.044-.022-.044-.044l-.067-.022a2.27 2.27 0 0 0-.489-.2 4.77 4.77 0 0 0-1.111-.267c-.378-.044-.755-.044-1.155 0-.666.067-1.688.2-2.443.8-.067.067-.155.133-.222.2-.222.222-.4.49-.533.822-.067.133-.11.31-.133.466-.155.777-.09 1.555-.044 2.332l.067.822v3.665l.022.067c.333 1.266.977 2.132 1.955 2.643.378.2.777.31 1.155.355.133.022.267.044.4.044s.267.022.4.022a6.93 6.93 0 0 0 2.243-.4c2.243-.622 2.6-4.487 2.643-4.953 0-.09.022-.2.022-.29a7.4 7.4 0 0 0-.111-1.866zm-2.932 6.064c-.022 0-1.9.755-3.31.022-.49-.244-.866-.666-1.133-1.222v-.022l-.133-.333c-.022-.09-.067-.2-.09-.29v-3.243c0-.4-.044-.777-.067-1.177-.067-.71-.11-1.377.022-2.02v-.022c.2-.955 1-1.244 2.377-1.4.51-.067 1.022 0 1.533.155l.578.222c.044.022.178.133.355.29.09.067.178.178.29.267.355.355.666.777.91 1.288.11.222.2.444.29.666a5.46 5.46 0 0 1 .333 1.733c.022.267 0 .533 0 .8 0 .09-.022.178-.022.267v.022c-.022.29-.09.755-.2 1.266-.267 1.133-.755 2.465-1.644 2.7zm2.932-6.064c0-.067-.022-.11-.022-.155-.022-.133-.044-.244-.09-.378s-.067-.267-.11-.4v-.022c-.022-.09-.067-.155-.09-.244-.09-.244-.2-.467-.31-.71a3.79 3.79 0 0 0-.289-.511s-.022-.022-.022-.044l-.466-.666c-.11-.133-.222-.267-.355-.378l-.2-.2a3.22 3.22 0 0 0-.578-.466c-.022 0-.022-.022-.022-.022-.022-.022-.044-.022-.044-.044l-.067-.022a2.27 2.27 0 0 0-.489-.2 4.77 4.77 0 0 0-1.111-.267c-.378-.044-.755-.044-1.155 0-.666.067-1.688.2-2.443.8-.067.067-.155.133-.222.2-.222.222-.4.49-.533.822-.067.133-.11.31-.133.466-.155.777-.09 1.555-.044 2.332l.067.822v3.665l.022.067c.333 1.266.977 2.132 1.955 2.643.378.2.777.31 1.155.355.133.022.267.044.4.044s.267.022.4.022a6.93 6.93 0 0 0 2.243-.4c2.243-.622 2.6-4.487 2.643-4.953 0-.09.022-.2.022-.29a7.4 7.4 0 0 0-.111-1.866zm-2.932 6.064c-.022 0-1.9.755-3.31.022-.49-.244-.866-.666-1.133-1.222v-.022l-.133-.333c-.022-.09-.067-.2-.09-.29v-3.243c0-.4-.044-.777-.067-1.177-.067-.71-.11-1.377.022-2.02v-.022c.2-.955 1-1.244 2.377-1.4.51-.067 1.022 0 1.533.155l.578.222c.044.022.178.133.355.29.09.067.178.178.29.267.355.355.666.777.91 1.288.11.222.2.444.29.666a5.46 5.46 0 0 1 .333 1.733c.022.267 0 .533 0 .8 0 .09-.022.178-.022.267v.022c-.022.29-.09.755-.2 1.266-.267 1.133-.755 2.465-1.644 2.7zm-10.55-14.66-.022.044-.2.355v.91l.11-.11c.022-.022.067-.044.09-.067l.022-.022v.755a.17.17 0 0 0 .089.044l.222.155v-2.6zm13.482 8.596c0-.067-.022-.11-.022-.155-.022-.133-.044-.244-.09-.378s-.067-.267-.11-.4v-.022c-.022-.09-.067-.155-.09-.244-.09-.244-.2-.467-.31-.71a3.79 3.79 0 0 0-.289-.511s-.022-.022-.022-.044l-.466-.666c-.11-.133-.222-.267-.355-.378l-.2-.2a3.22 3.22 0 0 0-.578-.466c-.022 0-.022-.022-.022-.022-.022-.022-.044-.022-.044-.044l-.067-.022a2.27 2.27 0 0 0-.489-.2 4.77 4.77 0 0 0-1.111-.267c-.378-.044-.755-.044-1.155 0-.666.067-1.688.2-2.443.8-.067.067-.155.133-.222.2-.222.222-.4.49-.533.822-.067.133-.11.31-.133.466-.155.777-.09 1.555-.044 2.332l.067.822v3.665l.022.067c.333 1.266.977 2.132 1.955 2.643.378.2.777.31 1.155.355.133.022.267.044.4.044s.267.022.4.022a6.93 6.93 0 0 0 2.243-.4c2.243-.622 2.6-4.487 2.643-4.953 0-.09.022-.2.022-.29a7.4 7.4 0 0 0-.111-1.866zm-2.932 6.064c-.022 0-1.9.755-3.31.022-.49-.244-.866-.666-1.133-1.222v-.022l-.133-.333c-.022-.09-.067-.2-.09-.29v-3.243c0-.4-.044-.777-.067-1.177-.067-.71-.11-1.377.022-2.02v-.022c.2-.955 1-1.244 2.377-1.4.51-.067 1.022 0 1.533.155l.578.222c.044.022.178.133.355.29.09.067.178.178.29.267.355.355.666.777.91 1.288.11.222.2.444.29.666a5.46 5.46 0 0 1 .333 1.733c.022.267 0 .533 0 .8 0 .09-.022.178-.022.267v.022c-.022.29-.09.755-.2 1.266-.267 1.133-.755 2.465-1.644 2.7zm2.932-6.064c0-.067-.022-.11-.022-.155-.022-.133-.044-.244-.09-.378s-.067-.267-.11-.4v-.022c-.022-.09-.067-.155-.09-.244-.09-.244-.2-.467-.31-.71a3.79 3.79 0 0 0-.289-.511s-.022-.022-.022-.044l-.466-.666c-.11-.133-.222-.267-.355-.378l-.2-.2a3.22 3.22 0 0 0-.578-.466c-.022 0-.022-.022-.022-.022-.022-.022-.044-.022-.044-.044l-.067-.022a2.27 2.27 0 0 0-.489-.2 4.77 4.77 0 0 0-1.111-.267c-.378-.044-.755-.044-1.155 0-.666.067-1.688.2-2.443.8-.067.067-.155.133-.222.2-.222.222-.4.49-.533.822-.067.133-.11.31-.133.466-.155.777-.09 1.555-.044 2.332l.067.822v3.665l.022.067c.333 1.266.977 2.132 1.955 2.643.378.2.777.31 1.155.355.133.022.267.044.4.044s.267.022.4.022a6.93 6.93 0 0 0 2.243-.4c2.243-.622 2.6-4.487 2.643-4.953 0-.09.022-.2.022-.29a7.4 7.4 0 0 0-.111-1.866zm-2.932 6.064c-.022 0-1.9.755-3.31.022-.49-.244-.866-.666-1.133-1.222v-.022l-.133-.333c-.022-.09-.067-.2-.09-.29v-3.243c0-.4-.044-.777-.067-1.177-.067-.71-.11-1.377.022-2.02v-.022c.2-.955 1-1.244 2.377-1.4.51-.067 1.022 0 1.533.155l.578.222c.044.022.178.133.355.29.09.067.178.178.29.267.355.355.666.777.91 1.288.11.222.2.444.29.666a5.46 5.46 0 0 1 .333 1.733c.022.267 0 .533 0 .8 0 .09-.022.178-.022.267v.022c-.022.29-.09.755-.2 1.266-.267 1.133-.755 2.465-1.644 2.7zm-10.55-14.66-.022.044-.2.355v.91l.11-.11c.022-.022.067-.044.09-.067l.022-.022v.755a.17.17 0 0 0 .089.044l.222.155v-2.6zm13.482 8.596c0-.067-.022-.11-.022-.155-.022-.133-.044-.244-.09-.378s-.067-.267-.11-.4v-.022c-.022-.09-.067-.155-.09-.244-.09-.244-.2-.467-.31-.71a3.79 3.79 0 0 0-.289-.511s-.022-.022-.022-.044l-.466-.666c-.11-.133-.222-.267-.355-.378l-.2-.2a3.22 3.22 0 0 0-.578-.466c-.022 0-.022-.022-.022-.022-.022-.022-.044-.022-.044-.044l-.067-.022a2.27 2.27 0 0 0-.489-.2 4.77 4.77 0 0 0-1.111-.267c-.378-.044-.755-.044-1.155 0-.666.067-1.688.2-2.443.8-.067.067-.155.133-.222.2-.222.222-.4.49-.533.822-.067.133-.11.31-.133.466-.155.777-.09 1.555-.044 2.332l.067.822v3.665l.022.067c.333 1.266.977 2.132 1.955 2.643.378.2.777.31 1.155.355.133.022.267.044.4.044s.267.022.4.022a6.93 6.93 0 0 0 2.243-.4c2.243-.622 2.6-4.487 2.643-4.953 0-.09.022-.2.022-.29a7.4 7.4 0 0 0-.111-1.866zm-2.932 6.064c-.022 0-1.9.755-3.31.022-.49-.244-.866-.666-1.133-1.222v-.022l-.133-.333c-.022-.09-.067-.2-.09-.29v-3.243c0-.4-.044-.777-.067-1.177-.067-.71-.11-1.377.022-2.02v-.022c.2-.955 1-1.244 2.377-1.4.51-.067 1.022 0 1.533.155l.578.222c.044.022.178.133.355.29.09.067.178.178.29.267.355.355.666.777.91 1.288.11.222.2.444.29.666a5.46 5.46 0 0 1 .333 1.733c.022.267 0 .533 0 .8 0 .09-.022.178-.022.267v.022c-.022.29-.09.755-.2 1.266-.267 1.133-.755 2.465-1.644 2.7zm2.932-6.064c0-.067-.022-.11-.022-.155-.022-.133-.044-.244-.09-.378s-.067-.267-.11-.4v-.022c-.022-.09-.067-.155-.09-.244-.09-.244-.2-.467-.31-.71a3.79 3.79 0 0 0-.289-.511s-.022-.022-.022-.044l-.466-.666c-.11-.133-.222-.267-.355-.378l-.2-.2a3.22 3.22 0 0 0-.578-.466c-.022 0-.022-.022-.022-.022-.022-.022-.044-.022-.044-.044l-.067-.022a2.27 2.27 0 0 0-.489-.2 4.77 4.77 0 0 0-1.111-.267c-.378-.044-.755-.044-1.155 0-.666.067-1.688.2-2.443.8-.067.067-.155.133-.222.2-.222.222-.4.49-.533.822-.067.133-.11.31-.133.466-.155.777-.09 1.555-.044 2.332l.067.822v3.665l.022.067c.333 1.266.977 2.132 1.955 2.643.378.2.777.31 1.155.355.133.022.267.044.4.044s.267.022.4.022a6.93 6.93 0 0 0 2.243-.4c2.243-.622 2.6-4.487 2.643-4.953 0-.09.022-.2.022-.29a7.4 7.4 0 0 0-.111-1.866zm-2.932 6.064c-.022 0-1.9.755-3.31.022-.49-.244-.866-.666-1.133-1.222v-.022l-.133-.333c-.022-.09-.067-.2-.09-.29v-3.243c0-.4-.044-.777-.067-1.177-.067-.71-.11-1.377.022-2.02v-.022c.2-.955 1-1.244 2.377-1.4.51-.067 1.022 0 1.533.155l.578.222c.044.022.178.133.355.29.09.067.178.178.29.267.355.355.666.777.91 1.288.11.222.2.444.29.666a5.46 5.46 0 0 1 .333 1.733c.022.267 0 .533 0 .8 0 .09-.022.178-.022.267v.022c-.022.29-.09.755-.2 1.266-.267 1.133-.755 2.465-1.644 2.7zm-10.55-14.66-.022.044-.2.355v.91l.11-.11c.022-.022.067-.044.09-.067l.022-.022v.755a.17.17 0 0 0 .089.044l.222.155v-2.6zm13.482 8.596c0-.067-.022-.11-.022-.155-.022-.133-.044-.244-.09-.378s-.067-.267-.11-.4v-.022c-.022-.09-.067-.155-.09-.244-.09-.244-.2-.467-.31-.71a3.79 3.79 0 0 0-.289-.511s-.022-.022-.022-.044l-.466-.666c-.11-.133-.222-.267-.355-.378l-.2-.2a3.22 3.22 0 0 0-.578-.466c-.022 0-.022-.022-.022-.022-.022-.022-.044-.022-.044-.044l-.067-.022a2.27 2.27 0 0 0-.489-.2 4.77 4.77 0 0 0-1.111-.267c-.378-.044-.755-.044-1.155 0-.666.067-1.688.2-2.443.8-.067.067-.155.133-.222.2-.222.222-.4.49-.533.822-.067.133-.11.31-.133.466-.155.777-.09 1.555-.044 2.332l.067.822v3.665l.022.067c.333 1.266.977 2.132 1.955 2.643.378.2.777.31 1.155.355.133.022.267.044.4.044s.267.022.4.022a6.93 6.93 0 0 0 2.243-.4c2.243-.622 2.6-4.487 2.643-4.953 0-.09.022-.2.022-.29a7.4 7.4 0 0 0-.111-1.866zm-2.932 6.064c-.022 0-1.9.755-3.31.022-.49-.244-.866-.666-1.133-1.222v-.022l-.133-.333c-.022-.09-.067-.2-.09-.29v-3.243c0-.4-.044-.777-.067-1.177-.067-.71-.11-1.377.022-2.02v-.022c.2-.955 1-1.244 2.377-1.4.51-.067 1.022 0 1.533.155l.578.222c.044.022.178.133.355.29.09.067.178.178.29.267.355.355.666.777.91 1.288.11.222.2.444.29.666a5.46 5.46 0 0 1 .333 1.733c.022.267 0 .533 0 .8 0 .09-.022.178-.022.267v.022c-.022.29-.09.755-.2 1.266-.267 1.133-.755 2.465-1.644 2.7zm2.932-6.064c0-.067-.022-.11-.022-.155-.022-.133-.044-.244-.09-.378s-.067-.267-.11-.4v-.022c-.022-.09-.067-.155-.09-.244-.09-.244-.2-.467-.31-.71a3.79 3.79 0 0 0-.289-.511s-.022-.022-.022-.044l-.466-.666c-.11-.133-.222-.267-.355-.378l-.2-.2a3.22 3.22 0 0 0-.578-.466c-.022 0-.022-.022-.022-.022-.022-.022-.044-.022-.044-.044l-.067-.022a2.27 2.27 0 0 0-.489-.2 4.77 4.77 0 0 0-1.111-.267c-.378-.044-.755-.044-1.155 0-.666.067-1.688.2-2.443.8-.067.067-.155.133-.222.2-.222.222-.4.49-.533.822-.067.133-.11.31-.133.466-.155.777-.09 1.555-.044 2.332l.067.822v3.665l.022.067c.333 1.266.977 2.132 1.955 2.643.378.2.777.31 1.155.355.133.022.267.044.4.044s.267.022.4.022a6.93 6.93 0 0 0 2.243-.4c2.243-.622 2.6-4.487 2.643-4.953 0-.09.022-.2.022-.29a7.4 7.4 0 0 0-.111-1.866zm-2.932 6.064c-.022 0-1.9.755-3.31.022-.49-.244-.866-.666-1.133-1.222v-.022l-.133-.333c-.022-.09-.067-.2-.09-.29v-3.243c0-.4-.044-.777-.067-1.177-.067-.71-.11-1.377.022-2.02v-.022c.2-.955 1-1.244 2.377-1.4.51-.067 1.022 0 1.533.155l.578.222c.044.022.178.133.355.29.09.067.178.178.29.267.355.355.666.777.91 1.288.11.222.2.444.29.666a5.46 5.46 0 0 1 .333 1.733c.022.267 0 .533 0 .8 0 .09-.022.178-.022.267v.022c-.022.29-.09.755-.2 1.266-.267 1.133-.755 2.465-1.644 2.7zm-10.55-14.66-.022.044-.2.355v.91l.11-.11c.022-.022.067-.044.09-.067l.022-.022v.755a.17.17 0 0 0 .089.044l.222.155v-2.6zm13.482 8.596c0-.067-.022-.11-.022-.155-.022-.133-.044-.244-.09-.378s-.067-.267-.11-.4v-.022c-.022-.09-.067-.155-.09-.244-.09-.244-.2-.467-.31-.71a3.79 3.79 0 0 0-.289-.511s-.022-.022-.022-.044l-.466-.666c-.11-.133-.222-.267-.355-.378l-.2-.2a3.22 3.22 0 0 0-.578-.466c-.022 0-.022-.022-.022-.022-.022-.022-.044-.022-.044-.044l-.067-.022a2.27 2.27 0 0 0-.489-.2 4.77 4.77 0 0 0-1.111-.267c-.378-.044-.755-.044-1.155 0-.666.067-1.688.2-2.443.8-.067.067-.155.133-.222.2-.222.222-.4.49-.533.822-.067.133-.11.31-.133.466-.155.777-.09 1.555-.044 2.332l.067.822v3.665l.022.067c.333 1.266.977 2.132 1.955 2.643.378.2.777.31 1.155.355.133.022.267.044.4.044s.267.022.4.022a6.93 6.93 0 0 0 2.243-.4c2.243-.622 2.6-4.487 2.643-4.953 0-.09.022-.2.022-.29a7.4 7.4 0 0 0-.111-1.866zm-2.932 6.064c-.022 0-1.9.755-3.31.022-.49-.244-.866-.666-1.133-1.222v-.022l-.133-.333c-.022-.09-.067-.2-.09-.29v-3.243c0-.4-.044-.777-.067-1.177-.067-.71-.11-1.377.022-2.02v-.022c.2-.955 1-1.244 2.377-1.4.51-.067 1.022 0 1.533.155l.578.222c.044.022.178.133.355.29.09.067.178.178.29.267.355.355.666.777.91 1.288.11.222.2.444.29.666a5.46 5.46 0 0 1 .333 1.733c.022.267 0 .533 0 .8 0 .09-.022.178-.022.267v.022c-.022.29-.09.755-.2 1.266-.267 1.133-.755 2.465-1.644 2.7zm2.932-6.064c0-.067-.022-.11-.022-.155-.022-.133-.044-.244-.09-.378s-.067-.267-.11-.4v-.022c-.022-.09-.067-.155-.09-.244-.09-.244-.2-.467-.31-.71a3.79 3.79 0 0 0-.289-.511s-.022-.022-.022-.044l-.466-.666c-.11-.133-.222-.267-.355-.378l-.2-.2a3.22 3.22 0 0 0-.578-.466c-.022 0-.022-.022-.022-.022-.022-.022-.044-.022-.044-.044l-.067-.022a2.27 2.27 0 0 0-.489-.2 4.77 4.77 0 0 0-1.111-.267c-.378-.044-.755-.044-1.155 0-.666.067-1.688.2-2.443.8-.067.067-.155.133-.222.2-.222.222-.4.49-.533.822-.067.133-.11.31-.133.466-.155.777-.09 1.555-.044 2.332l.067.822v3.665l.022.067c.333 1.266.977 2.132 1.955 2.643.378.2.777.31 1.155.355.133.022.267.044.4.044s.267.022.4.022a6.93 6.93 0 0 0 2.243-.4c2.243-.622 2.6-4.487 2.643-4.953 0-.09.022-.2.022-.29a7.4 7.4 0 0 0-.111-1.866zm-2.932 6.064c-.022 0-1.9.755-3.31.022-.49-.244-.866-.666-1.133-1.222v-.022l-.133-.333c-.022-.09-.067-.2-.09-.29v-3.243c0-.4-.044-.777-.067-1.177-.067-.71-.11-1.377.022-2.02v-.022c.2-.955 1-1.244 2.377-1.4.51-.067 1.022 0 1.533.155l.578.222c.044.022.178.133.355.29.09.067.178.178.29.267.355.355.666.777.91 1.288.11.222.2.444.29.666a5.46 5.46 0 0 1 .333 1.733c.022.267 0 .533 0 .8 0 .09-.022.178-.022.267v.022c-.022.29-.09.755-.2 1.266-.267 1.133-.755 2.465-1.644 2.7z" style="fill:#6038b0"/>
    <path d="m57.392 18.17v0l-.244-.578c-2.177-4.864-7.197-4.887-7.53-4.887h-.022l-2.266.11c-.644.044-1.222.29-1.666.71-.09.067-.155.155-.244.244a2.59 2.59 0 0 0-.622 1.844v.222c.044.777.422 1.466 1 1.932a2.84 2.84 0 0 0 1.199.555c.2.044.4.044.622.044l1.6-.09c2.488.244 2.843 2.155 2.888 2.932v.31c0-.444-.933-1.11-1.222-1.31-1.133-.8-2.643-1.11-4.198-1.088-.51 0-1.044.067-1.555.155-1.444.244-2.82.755-3.865 1.444-1.355.888-2.177 2.5-2.643 4.02l-.067.244c-.09.31-.155.644-.222.955-.266 1.444-.155 2.954.29 4.354 0 0 1.066 4.33 8.685 4.93l6.064-.244 3.998-.044.067-1.733.178-3.93v-9.995c.022-.4-.067-.777-.222-1.11zm-13.794 8.263c1.355-2.465 5.553-2.02 7.44-.51.71.578 1.022 1.266 1.155 2.155.044.267.333 1.777-.09 1.777h-6.02c-.155 0-.31 0-.466-.044-1.31-.267-2.732-2.088-2.02-3.376z" style="fill:url(#linearGradient1882)"/>
    <path d="m52.75 28.055v-.067c-.178-1.11-.6-1.888-1.355-2.488-1.355-1.066-3.665-1.6-5.464-1.222-1.288.267-2.266.91-2.82 1.9-.355.622-.333 1.4.022 2.177.466 1 1.444 1.82 2.377 2 .2.044.4.044.578.044l2.688.022h3.332c.222 0 .422-.09.555-.267.267-.355.29-.955.09-2.1zm-2.333 1.245c-1.422 0-2.888 0-4.33-.022-.133 0-.267 0-.378-.022-.6-.11-1.266-.71-1.577-1.377-.133-.31-.267-.755-.044-1.155.49-.89 1.377-1.222 2.066-1.355.31-.067.666-.09 1-.09 1.288 0 2.688.422 3.554 1.11.533.422.822.955.955 1.8l.022.09c.09.555.11.866.11 1.044-.466-.044-.933-.022-1.377-.022zm2.332-1.244v-.067c-.178-1.11-.6-1.888-1.355-2.488-1.355-1.066-3.665-1.6-5.464-1.222-1.288.267-2.266.91-2.82 1.9-.355.622-.333 1.4.022 2.177.466 1 1.444 1.82 2.377 2 .2.044.4.044.578.044l2.688.022h3.332c.222 0 .422-.09.555-.267.267-.355.29-.955.09-2.1zm-2.332 1.244c-1.422 0-2.888 0-4.33-.022-.133 0-.267 0-.378-.022-.6-.11-1.266-.71-1.577-1.377-.133-.31-.267-.755-.044-1.155.49-.89 1.377-1.222 2.066-1.355.31-.067.666-.09 1-.09 1.288 0 2.688.422 3.554 1.11.533.422.822.955.955 1.8l.022.09c.09.555.11.866.11 1.044-.466-.044-.933-.022-1.377-.022zm-4.02-9.573c.178-.022.333-.022.51-.022 1.355 0 2.665.29 3.665.977.644.444.955.8.977.91v-.045l1.11.067c0-.044.022-.2 0-.4-.044-.733-.4-3.154-3.376-3.443h-.044l-1.644.09c-.155 0-.29 0-.422-.022-.022.11-.045.222-.09.333-.022.044-.022.11-.044.155 0 .022 0 .022-.022.045.2.044.4.044.622.044l1.6-.09c2.488.244 2.843 2.155 2.887 2.932v.31c0-.444-.933-1.11-1.222-1.3-1.133-.8-2.643-1.11-4.198-1.088-.51 0-1.044.067-1.555.155l-.178.31c-.044.067-.067.11-.11.155s-.067.11-.11.155c.533-.133 1.088-.2 1.644-.222zm11.506-1.777-.044-.09a4.93 4.93 0 0 0-.2-.466c-2.3-5.13-7.463-5.22-8.063-5.198l-2.3.11c-.848.047-1.644.42-2.22 1.044v.022l-.022.022c-.555.644-.844 1.444-.8 2.288v.222c.044 1.022.578 1.9 1.355 2.443a3.53 3.53 0 0 0 .489.289l-.666.067c-1.666.222-3.265.777-4.487 1.577-1.577 1.044-2.443 2.932-2.865 4.33l-.178.644c-.067.244-.11.49-.155.733-.244 1.533-.133 3.065.333 4.51.11.422 1.444 4.73 9.173 5.33h.044l6.086-.244 4.53-.044.267-6.197v-10.016c.022-.51-.067-.955-.267-1.377zm-10.596 16.724c-7.04-.555-8.107-4.33-8.152-4.51l-.022-.044a8.49 8.49 0 0 1-.244-4.287c.067-.31.133-.622.244-.933.022-.09.044-.178.09-.244.4-1.177 1.11-2.665 2.332-3.465.866-.578 1.977-1 3.176-1.266.555-.11 1.11-.178 1.666-.222.178-.022.333-.022.51-.022 1.355 0 2.665.29 3.665.977.644.444.955.8.977.91v-.044l1.11.067c0-.045.022-.2 0-.4-.044-.733-.4-3.154-3.376-3.443h-.044l-1.644.09c-.155 0-.29 0-.422-.022-.444-.067-.866-.29-1.177-.6-.355-.355-.577-.844-.622-1.377v-.222a2.15 2.15 0 0 1 .378-1.31c.044-.067.11-.155.178-.222.067-.09.156-.155.244-.222.333-.29.755-.444 1.222-.466l2.266-.11c.2 0 4.975-.022 7.02 4.553l.222.533.044.11.022.022c.11.244.156.51.156.8v9.995l-.222 5.13-3.487.044zm1.8-15.815h.09c.755.09 1.288.355 1.62.69-.51-.31-1.088-.533-1.7-.69zm3.643 9.13c-.178-1.11-.6-1.888-1.355-2.488-1.355-1.066-3.665-1.6-5.464-1.222-1.288.267-2.266.91-2.82 1.9-.355.622-.333 1.4.022 2.177.466 1 1.444 1.82 2.377 2 .2.044.4.044.578.044.888.022 1.8.022 2.688.022h3.332c.222 0 .422-.09.555-.267.29-.333.31-.91.11-2.088zm-2.332 1.3c-1.422 0-2.888 0-4.33-.022-.133 0-.267 0-.378-.022-.6-.11-1.266-.71-1.577-1.377-.133-.31-.267-.755-.044-1.155.49-.89 1.377-1.222 2.066-1.355.31-.067.666-.09 1-.09 1.288 0 2.688.422 3.554 1.11.533.422.822.955.955 1.8l.022.09c.09.555.11.866.11 1.044-.466-.044-.933-.022-1.377-.022zm2.22-8.107c-.044-.733-.4-3.154-3.376-3.443h-.044l-1.644.09c-.156 0-.29 0-.422-.022-.022.11-.044.222-.09.333-.022.044-.022.11-.044.155 0 .022 0 .022-.022.044.2.044.4.044.622.044l1.6-.09c2.488.244 2.843 2.155 2.887 2.932v.31c0-.444-.933-1.1-1.222-1.3-1.133-.8-2.643-1.11-4.198-1.088-.51 0-1.044.067-1.555.155-.067.11-.133.222-.178.31-.044.067-.067.11-.11.155s-.067.11-.11.156c.555-.11 1.11-.178 1.666-.222.178-.022.333-.022.51-.022 1.355 0 2.665.29 3.665.977.644.444.955.8.977.91v-.044l1.11.067c-.022-.045-.022-.2-.022-.4zm.11 6.863v-.067c-.178-1.11-.6-1.888-1.355-2.488-1.355-1.066-3.665-1.6-5.464-1.222-1.288.267-2.266.91-2.82 1.9-.355.622-.333 1.4.022 2.177.466 1 1.444 1.82 2.377 2 .2.044.4.044.578.044.888.022 1.8.022 2.688.022h3.332c.222 0 .422-.09.555-.267.267-.355.29-.955.09-2.1zm-2.331 1.255c-1.422 0-2.888 0-4.33-.022-.133 0-.267 0-.378-.022-.6-.11-1.266-.71-1.577-1.377-.133-.31-.267-.755-.044-1.155.49-.89 1.377-1.222 2.066-1.355.31-.067.666-.09 1-.09 1.288 0 2.688.422 3.554 1.11.533.422.822.955.955 1.8l.022.09c.09.555.11.866.11 1.044-.466-.044-.933-.022-1.377-.022zm2.332-1.244v-.067c-.178-1.11-.6-1.888-1.355-2.488-1.355-1.066-3.665-1.6-5.464-1.222-1.288.267-2.266.91-2.82 1.9-.355.622-.333 1.4.022 2.177.466 1 1.444 1.82 2.377 2 .2.044.4.044.578.044.888.022 1.8.022 2.688.022h3.332c.222 0 .422-.09.555-.267.267-.355.29-.955.09-2.1zm-2.332 1.244c-1.422 0-2.888 0-4.33-.022-.133 0-.267 0-.378-.022-.6-.11-1.266-.71-1.577-1.377-.133-.31-.267-.755-.044-1.155.49-.89 1.377-1.222 2.066-1.355.31-.067.666-.09 1-.09 1.288 0 2.688.422 3.554 1.11.533.422.822.955.955 1.8l.022.09c.09.555.11.866.11 1.044-.466-.044-.933-.022-1.377-.022z" style="fill:#6038b0"/>
    <path d="m14.922 11.752v.955c0 .022-.044-.378 0-.955zm0 2.732v-1.754 3.132h-.022v-.422z" style="fill:#000"/>
   </g>
  </g>
 </g>
</svg>
