<?xml version="1.0" encoding="UTF-8"?>
<svg xmlns="http://www.w3.org/2000/svg" xmlns:xlink="http://www.w3.org/1999/xlink" width="253px" height="208px" viewBox="0 0 253 208" version="1.1">
  <title>Logos / Logomark Negative</title>
  <g id="Logos-/-Logomark-Negative" stroke="none" stroke-width="1" fill="none" fill-rule="evenodd">
    <path d="M106,79 L106,54 L79,54 L79,79 L63.1,79 L54,104 L79,104 L79,154 L107.35,154 C112.605,154 117.3,150.7125 119.095,145.775 L124.56,130.76 C124.56,130.76 125.205,129 127.075,129 L166.7,129 L175.8,104 L143.0525,104 C137.7975,104 133.1025,107.2875 131.3075,112.225 L125.8425,127.2375 C125.8425,127.2375 125.2,129 123.3275,129 L106,129 L106,104 L125.55,104 C130.805,104 135.5,100.7125 137.295,95.775 L142.76,80.76 C142.76,80.76 143.405,79 145.275,79 L189.9,79 L199,54 L161.2525,54 C155.9975,54 151.3025,57.2875 149.5075,62.225 L144.0425,77.2375 C144.0425,77.2375 143.4,79 141.5275,79 L106.0025,79 L106,79 Z" id="Path" fill="#FFFFFF" fill-rule="nonzero"></path>
  </g>
</svg>
