<?xml version="1.0" encoding="UTF-8" standalone="no"?>
<svg
   xmlns:dc="http://purl.org/dc/elements/1.1/"
   xmlns:cc="http://creativecommons.org/ns#"
   xmlns:rdf="http://www.w3.org/1999/02/22-rdf-syntax-ns#"
   xmlns:svg="http://www.w3.org/2000/svg"
   xmlns="http://www.w3.org/2000/svg"
   xmlns:sodipodi="http://sodipodi.sourceforge.net/DTD/sodipodi-0.dtd"
   xmlns:inkscape="http://www.inkscape.org/namespaces/inkscape"
   class="pdfbox-brand-toolbox"
   viewBox="0 0 3062.6524 676.51717"
   version="1.1"
   id="svg8559"
   sodipodi:docname="pdfbox.svg"
   width="3062.6523"
   height="676.51715"
   inkscape:version="0.92.3 (2405546, 2018-03-11)">
  <metadata
     id="metadata8565">
    <rdf:RDF>
      <cc:Work
         rdf:about="">
        <dc:format>image/svg+xml</dc:format>
        <dc:type
           rdf:resource="http://purl.org/dc/dcmitype/StillImage" />
        <dc:title></dc:title>
      </cc:Work>
    </rdf:RDF>
  </metadata>
  <defs
     id="defs8563" />
  <sodipodi:namedview
     pagecolor="#ffffff"
     bordercolor="#666666"
     borderopacity="1"
     objecttolerance="10"
     gridtolerance="10"
     guidetolerance="10"
     inkscape:pageopacity="0"
     inkscape:pageshadow="2"
     inkscape:window-width="3726"
     inkscape:window-height="2049"
     id="namedview8561"
     showgrid="false"
     fit-margin-top="0"
     fit-margin-left="0"
     fit-margin-right="0"
     fit-margin-bottom="0"
     inkscape:zoom="0.22425739"
     inkscape:cx="450.12474"
     inkscape:cy="338.74266"
     inkscape:window-x="114"
     inkscape:window-y="55"
     inkscape:window-maximized="1"
     inkscape:current-layer="svg8559" />
  <g
     transform="matrix(1.25,0,0,-1.25,-319.0625,829.67341)"
     clip-path="url(#clipPath3375)"
     id="g8557">
    <path
       d="M 821.924,376.535 463.24,122.525 259.41,199.385 c 23.89,6.02 46.87,15.197 68.335,27.29 60.063,33.835 105.686,88.46 128.282,153.59 2.634,4.66 8.11,6.92 13.265,5.47 4.667,-1.31 8.01,-5.41 8.353,-10.247 l -3.572,-188.12 334.99,193.957 c 2.41,1 5.113,1.028 7.54,0.075 2.315,-0.907 4.21,-2.64 5.32,-4.865 z m -1.307,97.91 0.13,-78.324 c -0.87,-2.72 -3.342,-4.61 -6.197,-4.75 -3.104,-0.14 -5.924,1.8 -6.893,4.75 l 1.29,79.54 c 0.386,2.92 2.893,5.09 5.835,5.04 3.37,-0.04 6.022,-2.89 5.835,-6.25 z"
       id="path8551"
       inkscape:connector-curvature="0" />
    <path
       d="m 751.88,651.666 c -0.237,0.002 -0.48,-0.022 -0.723,-0.077 l -363.512,-25.15 c -10.37,-0.73 -19.583,-6.76 -24.588,-15.87 -6.943,-12.64 -4.677,-28.26 5.864,-37.72 2.85,-2.56 6.22,-4.49 8.97,-7.16 2.19,-2.12 3.93,-4.65 5.12,-7.45 23.7,-26.86 30.3,-64.76 17.08,-98.05 -4.75,-11.96 -11.97,-22.77 -21.2,-31.73 l -73.74,16.1 46.69,115.89 c 2.01,3.07 0.64,7.21 -2.8,8.49 -2.8,1.03 -5.91,-0.34 -7.03,-3.1 L 286.49,448.8 274.7,453.12 c -2.097,0.28 -4.21,-0.39 -5.76,-1.825 -1.16,-1.077 -1.925,-2.516 -2.16,-4.083 l -11.53,-189.68 c 1.66,-1.83 4.03,-2.85 6.5,-2.798 2.533,0.05 4.913,1.22 6.5,3.197 6.22,22.46 11.216,45.23 14.96,68.22 5.137,31.55 7.91,63.43 8.3,95.39 l 136.152,-15.28 c 2.396,-1.09 5.032,-1.56 7.66,-1.35 2.75,0.22 5.396,1.16 7.663,2.73 41.62,19.22 83.375,38.15 125.26,56.79 41.615,18.52 83.36,36.75 125.23,54.68 1.935,-0.16 3.703,-1.16 4.843,-2.73 1.266,-1.74 1.618,-3.99 0.948,-6.04 -3.8,-3.45 -7.333,-7.19 -10.575,-11.17 -3.5,-4.3 -6.65,-8.88 -9.42,-13.69 0.11,-0.34 0.22,-0.68 0.35,-1.01 0.32,-0.85 0.7,-1.68 1.25,-2.41 2.42,-3.16 7.04,-3.55 9.96,-0.84 8.66,9.71 19.21,17.557 31.01,23.05 10.67,4.97 22.17,7.927 33.92,8.717 2.58,1.626 4.23,4.39 4.43,7.437 0.14,2.06 -0.41,4.103 -1.56,5.815 -3.63,-0.24 -7.27,0.26 -10.71,1.47 -3.55,1.25 -6.81,3.23 -9.55,5.815 l 19.55,78.14 c -1.4,1.684 -3.13,3.07 -5.08,4.06 -2.28,1.16 -4.81,1.76 -7.37,1.746 -53.05,-4.71 -106.21,-8.08 -159.433,-10.11 -53.34,-2.035 -106.73,-2.72 -160.1,-2.056 -3.79,-0.575 -6.82,3.092 -5.54,6.7 0.63,1.784 2.31,2.98 4.2,2.996 l 321.783,26.06 c 2.094,0.873 3.99,1.933 5.74,3.18 1.46,1.036 2.987,2.365 2.947,4.34 -0.034,1.75 -1.484,3.09 -3.154,3.11 z m -23.61,-56.02 c 0.952,-0.32 1.776,-0.934 2.354,-1.755 0.472,-0.67 0.76,-1.45 0.833,-2.27 l -12.96,-35.37 c -2.706,-3.39 -5.87,-6.4 -9.404,-8.92 -3.324,-2.37 -6.945,-4.3 -10.77,-5.73 l -260.77,-58.65 -21.01,80.83 311.727,31.88 z"
       id="path8553"
       inkscape:connector-curvature="0" />
    <path
       d="m 786.68,627.94 c 0.393,-18.97 2.614,-37.734 6.564,-56.05 3.873,-17.958 9.463,-35.75 19.087,-51.71 3.54,-5.854 7.58,-11.385 12.08,-16.53 1.07,-1.608 1.71,-3.462 1.86,-5.386 0.14,-1.842 -0.16,-3.69 -0.9,-5.385 -54.19,-15.56 -108.32,-31.34 -162.39,-47.35 -54.2,-16.05 -108.33,-32.33 -162.39,-48.85 -0.23,1.43 0.04,2.9 0.78,4.15 1.07,1.81 2.96,2.99 5.06,3.13 l 271.54,104.43 c -4.43,19.56 -7.17,39.46 -8.19,59.49 -0.99,19.68 -0.32,39.4 2.02,58.97 0.81,4.06 4.63,6.79 8.74,6.24 2.88,-0.39 5.27,-2.4 6.15,-5.16 z"
       id="path8555"
       inkscape:connector-curvature="0" />
  </g>
  <path
     inkscape:connector-curvature="0"
     style="isolation:isolate;fill-rule:evenodd;stroke-width:19.63888931"
     d="m 906.08603,36.088 h 128.20267 q 35.1929,0 62,9.23032 26.8267,9.191 48.6062,32.65947 21.7992,23.44881 30.1654,55.3031 8.3858,30.83306 8.3858,84.44723 0,39.27778 -5.0276,67.75418 -4.2027,27.69083 -19.2854,51.84666 -17.5965,29.30123 -46.937,46.0532 -29.3011,15.90751 -77.063,15.90751 H 991.71157 V 632.4033 H 906.08603 V 35.98979 Z m 85.46845,283.19282 h 41.04522 q 25.9824,0 40.2598,-7.52169 14.2185,-7.54134 20.9154,-20.11022 6.7165,-13.41337 7.5414,-31.85429 1.7674,-18.26416 1.7674,-41.04528 0,-20.81723 -1.5711,-39.27778 -0.7856,-19.24611 -7.4627,-32.60056 -5.8917,-14.14 -19.2462,-21.79917 -13.3544,-8.44472 -38.4922,-8.44472 h -44.59993 v 202.67335 z"
     id="path9170" />
  <path
     inkscape:connector-curvature="0"
     style="isolation:isolate;fill-rule:evenodd;stroke-width:19.63888931"
     d="m 1246.4869,36.088 h 126.5334 q 72.8995,0 111.4506,41.04524 38.6886,40.22051 38.6886,113.12007 v 279.02936 q 0,83.79915 -41.0452,124.0196 -40.2597,39.37597 -116.4586,39.37597 H 1246.644 V 36.04878 Z m 85.4685,516.14935 h 39.3956 q 36.1355,0 51.2575,-17.59644 15.1219,-18.46056 15.1219,-56.95279 V 190.25331 q 0,-35.19289 -14.14,-54.45864 -14.14,-19.2854 -51.8466,-19.2854 H 1332.25 v 435.72808 z"
     id="path9172" />
  <path
     inkscape:connector-curvature="0"
     style="isolation:isolate;stroke-width:19.63888931"
     d="m 1604.8966,36.088 h 254.7164 v 80.42127 h -169.2479 v 180.99202 h 147.4881 v 80.51945 h -147.4881 v 254.71643 h -85.4685 z"
     id="path9174" />
  <path
     inkscape:connector-curvature="0"
     style="isolation:isolate;fill-rule:evenodd;stroke-width:19.63888931"
     d="m 1915.8588,36.088 h 124.8445 q 41.0453,0 69.5217,12.56895 29.3602,12.56883 47.7814,33.5039 18.4605,20.95473 25.9823,48.60626 8.3858,26.90528 8.3858,56.16723 v 21.77953 q 0,24.27367 -4.2027,41.04528 -3.3387,16.75197 -10.88,29.32087 -7.6592,12.56889 -18.4605,22.62399 -10.9979,9.23028 -25.1378,17.59645 30.0475,14.3364 44.3839,42.81279 14.14,27.69083 14.14,74.62778 v 33.5825 q 0,78.75195 -38.6887,120.77918 -37.7066,41.83084 -121.5648,41.83084 H 1915.525 V 36.088 Z m 85.4685,511.12179 h 36.7248 q 25.9233,0 40.2597,-7.54132 15.122,-7.54134 22.5847,-20.95471 7.4628,-13.39372 9.2303,-31.81501 1.5711,-18.46055 1.5711,-40.25971 0,-22.58473 -2.5531,-39.35634 -2.553,-16.69306 -10.9977,-27.49445 -7.5807,-11.78334 -21.7992,-17.47861 -14.2774,-5.89168 -37.7067,-5.89168 h -37.7066 v 191.08642 z m 0,-266.46047 h 38.4923 q 42.6163,0 56.9527,-20.9547 15.122,-21.60278 15.122,-62.84445 0,-40.06334 -16.8894,-60.2914 -15.9076,-20.03166 -58.7204,-20.03166 h -35.1536 v 164.37752 z"
     id="path9176" />
  <path
     inkscape:connector-curvature="0"
     style="isolation:isolate;fill-rule:evenodd;stroke-width:19.63888931"
     d="m 2261.6997,350.31027 q 0,-25.98225 3.3387,-47.78142 3.3386,-21.79917 12.5688,-38.5315 15.0827,-27.65156 43.5984,-44.42317 28.4763,-16.75198 67.8524,-16.75198 39.3759,0 67.872,16.75198 28.4764,16.77161 43.5983,44.42317 9.191,16.75197 12.5689,38.5315 3.3386,21.79917 3.3386,47.76178 v 139.82891 q 0,25.92333 -3.3386,47.7225 -3.3779,21.79917 -12.5689,38.49223 -15.1219,27.49445 -43.5983,44.38389 -28.4764,16.69306 -67.872,16.69306 -39.3761,0 -67.872,-16.88944 -28.4764,-16.77162 -43.5983,-44.3839 -9.191,-16.79126 -12.569,-38.57079 -3.3386,-21.79916 -3.3386,-47.7225 V 350.11388 Z m 85.4685,153.32083 q 0,24.31294 10.8014,36.88183 11.7833,11.72442 31.0294,11.72442 19.2462,0 30.0475,-11.72442 11.587,-12.56889 11.587,-36.88183 V 336.89692 q 0,-24.31296 -11.7833,-36.03737 -10.9388,-12.5689 -30.2046,-12.5689 -19.2462,0 -31.0295,12.5689 -10.8603,11.72441 -10.8603,36.03737 V 503.6311 Z"
     id="path9178" />
  <path
     inkscape:connector-curvature="0"
     style="isolation:isolate;stroke-width:19.63888931"
     d="m 2640.5143,415.64887 -99.687,-207.77947 h 90.4764 l 52.7894,120.6417 52.7893,-120.66134 h 90.496 l -101.3367,207.77947 106.4428,217.04901 h -90.5353 l -57.7384,-129.87198 -57.7383,129.87198 h -90.5352 L 2640.8089,415.6685 Z"
     id="path9180" />
  <path
     inkscape:connector-curvature="0"
     style="isolation:isolate;fill-rule:evenodd;stroke-width:19.63888931"
     d="m 2926.5941,133.69331 h 23.5666 q 15.397,0 22.9382,-4.39912 7.8556,-4.71334 7.8556,-15.39685 0,-9.11245 -6.8736,-13.19741 -6.4809,-4.39903 -17.2822,-4.39903 h -30.0475 v 37.39241 z m -20.7388,-56.24577 h 50.2756 q 45.5623,0 45.5623,37.39243 0,9.42666 -2.8281,16.02534 -2.5137,6.59866 -7.227,10.99777 -4.7133,4.39912 -10.9979,6.9129 -5.9701,2.19954 -12.8831,3.14222 l 37.9032,58.13112 h -25.1378 l -37.8835,-57.50268 h -16.0449 v 57.50268 h -20.7388 z m 134.173,66.30088 q 0,-19.16757 -7.2664,-36.13561 -7.2664,-16.96797 -19.4425,-29.53681 -12.3726,-12.56895 -29.0656,-19.79601 -16.693,-7.54135 -35.5464,-7.54135 -18.8533,0 -35.5463,7.54135 -16.6931,7.22706 -28.8692,19.79601 -12.1761,12.56884 -19.6389,29.53681 -7.4628,16.96804 -7.2664,36.13561 0,19.16756 7.1485,36.13555 7.2664,16.96801 19.4819,29.53689 12.2153,12.5689 28.8691,20.11023 16.693,7.22712 35.5464,7.22712 18.8533,0 35.4482,-7.22712 16.6931,-7.54133 28.8692,-20.11023 12.2743,-12.56888 19.4425,-29.53689 7.2664,-16.96799 7.2664,-36.13555 z m -205.0301,0 q 0,-23.56667 8.8376,-44.30531 9.0338,-20.73864 24.5485,-36.13563 Q 2883.8991,47.91061 2904.52,39.11245 2925.3568,30 2948.9235,30 q 23.5666,0 44.2857,9.11245 20.7386,8.79816 36.1355,24.19503 15.3969,15.39699 24.1951,36.13563 9.1125,20.73864 9.1125,44.30531 0,23.56667 -9.0339,44.30533 -8.8375,20.73867 -24.1558,36.13557 -15.3184,15.39689 -36.1357,24.50933 -20.6207,8.79822 -44.1874,8.79822 -23.5667,0 -44.1875,-8.79822 -20.6797,-9.11244 -36.1356,-24.50933 -15.4558,-15.3969 -24.5485,-36.13557 -8.8375,-20.73866 -8.8375,-44.30533 z"
     id="path9182" />
</svg>
